<svg width="40" height="40" viewBox="0 0 40 40" fill="none" xmlns="http://www.w3.org/2000/svg">
<g clip-path="url(#clip0_87_2568)">
<path d="M22.5 6.96667C22.04 6.96667 21.6667 6.59333 21.6667 6.13333V3.33333C21.6667 2.415 20.9184 1.66667 20 1.66667C19.0817 1.66667 18.3334 2.415 18.3334 3.33333V6.13333C18.3334 6.59333 17.96 6.96667 17.5 6.96667C17.04 6.96667 16.6667 6.595 16.6667 6.13333V3.33333C16.6667 1.495 18.1617 0 20 0C21.8384 0 23.3334 1.495 23.3334 3.33333V6.13333C23.3334 6.595 22.96 6.96667 22.5 6.96667Z" fill="black"/>
<path d="M20 40C16.7834 40 14.1667 37.3833 14.1667 34.1667C14.1667 33.7067 14.54 33.3333 15 33.3333C15.46 33.3333 15.8334 33.7067 15.8334 34.1667C15.8334 36.4633 17.7034 38.3333 20 38.3333C22.2967 38.3333 24.1667 36.4633 24.1667 34.1667C24.1667 33.7067 24.54 33.3333 25 33.3333C25.46 33.3333 25.8334 33.7067 25.8334 34.1667C25.8334 37.3833 23.2167 40 20 40Z" fill="black"/>
<path d="M34.1666 35H5.83331C4.45498 35 3.33331 33.8783 3.33331 32.5C3.33331 31.7683 3.65165 31.0767 4.20831 30.6C6.83498 28.38 8.33331 25.15 8.33331 21.73V16.6667C8.33331 10.2333 13.5666 5 20 5C26.4333 5 31.6666 10.2333 31.6666 16.6667V21.73C31.6666 25.1517 33.165 28.38 35.7783 30.5883C36.3483 31.0767 36.6666 31.7683 36.6666 32.5C36.6666 33.8783 35.5466 35 34.1666 35ZM20 6.66667C14.485 6.66667 9.99998 11.1517 9.99998 16.6667V21.73C9.99998 25.6433 8.28665 29.335 5.29831 31.8617C5.10665 32.025 4.99998 32.2567 4.99998 32.5C4.99998 32.96 5.37331 33.3333 5.83331 33.3333H34.1666C34.6266 33.3333 35 32.96 35 32.5C35 32.2567 34.8933 32.025 34.7083 31.8667C31.715 29.335 30 25.6417 30 21.73V16.6667C30 11.1517 25.515 6.66667 20 6.66667Z" fill="black"/>
</g>
<defs>
<clipPath id="clip0_87_2568">
<rect width="40" height="40" fill="white"/>
</clipPath>
</defs>
</svg>
