<svg width="32" height="32" viewBox="0 0 32 32" fill="none" xmlns="http://www.w3.org/2000/svg">
<path d="M21 24H11C10.4696 24 9.96086 24.2107 9.58579 24.5858C9.21071 24.9609 9 25.4696 9 26V28C9 28.5304 9.21071 29.0391 9.58579 29.4142C9.96086 29.7893 10.4696 30 11 30H21C21.5304 30 22.0391 29.7893 22.4142 29.4142C22.7893 29.0391 23 28.5304 23 28V26C23 25.4696 22.7893 24.9609 22.4142 24.5858C22.0391 24.2107 21.5304 24 21 24ZM21 28H11V26H21V28Z" fill="#6D61DF"/>
<path d="M28.7068 14.293L16.7068 2.29303C16.5193 2.10556 16.265 2.00024 15.9998 2.00024C15.7346 2.00024 15.4803 2.10556 15.2928 2.29303L3.29279 14.293C3.15298 14.4329 3.05777 14.611 3.0192 14.805C2.98064 14.999 3.00044 15.2 3.07611 15.3827C3.15178 15.5654 3.27992 15.7215 3.44433 15.8314C3.60874 15.9413 3.80204 16 3.99979 16H8.99979V20C9.00032 20.5303 9.2112 21.0387 9.58616 21.4137C9.96112 21.7886 10.4695 21.9995 10.9998 22H20.9998C21.53 21.9992 22.0382 21.7883 22.4131 21.4134C22.788 21.0385 22.999 20.5302 22.9998 20V16H27.9998C28.1975 16 28.3908 15.9413 28.5552 15.8314C28.7197 15.7215 28.8478 15.5654 28.9235 15.3827C28.9991 15.2 29.0189 14.999 28.9804 14.805C28.9418 14.611 28.8466 14.4329 28.7068 14.293ZM20.9998 14V20H10.9998V14H6.41379L15.9998 4.41403L25.5858 14H20.9998Z" fill="#6D61DF"/>
</svg>
