<svg width="35" height="35" viewBox="0 0 35 35" fill="none" xmlns="http://www.w3.org/2000/svg">
<circle cx="17.5" cy="17.5" r="17.5" fill="#E4405F"/>
<g clip-path="url(#clip0_87_2700)">
<path d="M19.81 17.5004L24.1411 13.1694C24.6196 12.6908 24.6196 11.915 24.1411 11.4372L23.5637 10.8598C23.085 10.3811 22.3092 10.3811 21.8314 10.8598L17.5004 15.1907L13.1694 10.8589C12.6908 10.3804 11.915 10.3804 11.4372 10.8589L10.8589 11.4363C10.3804 11.915 10.3804 12.6908 10.8589 13.1686L15.1907 17.5004L10.8598 21.8314C10.3811 22.3101 10.3811 23.0859 10.8598 23.5637L11.4372 24.1411C11.9157 24.6196 12.6916 24.6196 13.1694 24.1411L17.5004 19.81L21.8314 24.1411C22.3101 24.6196 23.0859 24.6196 23.5637 24.1411L24.1411 23.5637C24.6196 23.085 24.6196 22.3092 24.1411 21.8314L19.81 17.5004Z" fill="white"/>
</g>
<defs>
<clipPath id="clip0_87_2700">
<rect width="14" height="14" fill="white" transform="translate(10.5 10.5)"/>
</clipPath>
</defs>
</svg>
