<svg width="35" height="36" viewBox="0 0 35 36" fill="none" xmlns="http://www.w3.org/2000/svg">
<g clip-path="url(#clip0_87_2707)">
<path d="M30.5276 0.333328H4.47241C2.00628 0.333328 0 2.33968 0 4.80581V30.8609C0 33.327 2.00628 35.3333 4.47241 35.3333H30.5276C32.9937 35.3333 35 33.327 35 30.8608V4.80581C35 2.33968 32.9937 0.333328 30.5276 0.333328ZM32.9384 30.8609C32.9384 32.1903 31.8569 33.2717 30.5276 33.2717H4.47241C3.14303 33.2717 2.06151 32.1902 2.06151 30.8609V27.1007L8.84652 21.3277C9.09412 21.117 9.45533 21.115 9.70525 21.3225L13.9554 24.8518C14.3652 25.192 14.9668 25.1641 15.3434 24.7871L25.4421 14.6731C25.6246 14.4902 25.8374 14.4724 25.9485 14.4781C26.0592 14.4838 26.2694 14.5233 26.4323 14.7239L32.9385 22.735V30.8609H32.9384ZM32.9384 19.4647L28.0325 13.4241C27.546 12.825 26.8249 12.4587 26.0541 12.4191C25.2838 12.3802 24.5285 12.6701 23.9832 13.2163L14.5491 22.665L11.0224 19.7366C9.99981 18.8874 8.52298 18.8962 7.51058 19.7576L2.06151 24.3939V4.80581C2.06151 3.47642 3.14303 2.39491 4.47241 2.39491H30.5276C31.857 2.39491 32.9384 3.47642 32.9384 4.80581V19.4647Z" fill="#6D61DF" fill-opacity="0.8"/>
<path d="M11.0177 4.63963C8.27687 4.63963 6.04712 6.86952 6.04712 9.61025C6.04712 12.351 8.27693 14.5809 11.0177 14.5809C13.7585 14.5809 15.9884 12.351 15.9884 9.61025C15.9884 6.86945 13.7586 4.63963 11.0177 4.63963ZM11.0177 12.5193C9.41361 12.5193 8.10863 11.2143 8.10863 9.61025C8.10863 8.00613 9.41361 6.70115 11.0177 6.70115C12.6219 6.70115 13.9268 8.00619 13.9268 9.61025C13.9268 11.2143 12.6219 12.5193 11.0177 12.5193Z" fill="#6D61DF" fill-opacity="0.8"/>
</g>
<defs>
<clipPath id="clip0_87_2707">
<rect width="35" height="35" fill="white" transform="translate(0 0.333328)"/>
</clipPath>
</defs>
</svg>
