<svg width="45" height="45" viewBox="0 0 45 45" fill="none" xmlns="http://www.w3.org/2000/svg">
<rect width="45" height="45" rx="5" fill="white" fill-opacity="0.1"/>
<path d="M23.0045 17.8723C20.1661 17.8723 17.8767 20.1617 17.8767 23C17.8767 25.8383 20.1661 28.1277 23.0045 28.1277C25.8428 28.1277 28.1322 25.8383 28.1322 23C28.1322 20.1617 25.8428 17.8723 23.0045 17.8723ZM23.0045 26.3337C21.1703 26.3337 19.6708 24.8387 19.6708 23C19.6708 21.1613 21.1658 19.6663 23.0045 19.6663C24.8431 19.6663 26.3382 21.1613 26.3382 23C26.3382 24.8387 24.8387 26.3337 23.0045 26.3337ZM29.538 17.6625C29.538 18.3275 29.0025 18.8585 28.342 18.8585C27.677 18.8585 27.1459 18.323 27.1459 17.6625C27.1459 17.002 27.6815 16.4665 28.342 16.4665C29.0025 16.4665 29.538 17.002 29.538 17.6625ZM32.9342 18.8764C32.8583 17.2742 32.4924 15.8551 31.3186 14.6858C30.1494 13.5166 28.7302 13.1506 27.1281 13.0703C25.4768 12.9766 20.5276 12.9766 18.8764 13.0703C17.2787 13.1462 15.8595 13.5121 14.6858 14.6814C13.5121 15.8506 13.1506 17.2698 13.0703 18.8719C12.9766 20.5232 12.9766 25.4724 13.0703 27.1236C13.1462 28.7258 13.5121 30.1449 14.6858 31.3142C15.8595 32.4834 17.2742 32.8494 18.8764 32.9297C20.5276 33.0234 25.4768 33.0234 27.1281 32.9297C28.7302 32.8538 30.1494 32.4879 31.3186 31.3142C32.4879 30.1449 32.8538 28.7258 32.9342 27.1236C33.0279 25.4724 33.0279 20.5276 32.9342 18.8764ZM30.801 28.8953C30.4529 29.7701 29.779 30.4439 28.8998 30.7965C27.5833 31.3186 24.4593 31.1981 23.0045 31.1981C21.5496 31.1981 18.4212 31.3142 17.1091 30.7965C16.2344 30.4484 15.5605 29.7745 15.208 28.8953C14.6858 27.5788 14.8063 24.4549 14.8063 23C14.8063 21.5451 14.6903 18.4167 15.208 17.1047C15.5561 16.2299 16.2299 15.5561 17.1091 15.2035C18.4256 14.6814 21.5496 14.8019 23.0045 14.8019C24.4593 14.8019 27.5877 14.6858 28.8998 15.2035C29.7745 15.5516 30.4484 16.2255 30.801 17.1047C31.3231 18.4212 31.2026 21.5451 31.2026 23C31.2026 24.4549 31.3231 27.5833 30.801 28.8953Z" fill="#E0E0E0"/>
</svg>
