<svg width="421" height="2" viewBox="0 0 421 2" fill="none" xmlns="http://www.w3.org/2000/svg">
<path d="M420 2C420.552 2 421 1.55228 421 1C421 0.447715 420.552 0 420 0V2ZM3.5 2C4.05228 2 4.5 1.55228 4.5 1C4.5 0.447715 4.05228 0 3.5 0V2ZM10.5 0C9.94772 0 9.5 0.447715 9.5 1C9.5 1.55228 9.94772 2 10.5 2V0ZM17.5 2C18.0523 2 18.5 1.55228 18.5 1C18.5 0.447715 18.0523 0 17.5 0V2ZM24.5 0C23.9477 0 23.5 0.447715 23.5 1C23.5 1.55228 23.9477 2 24.5 2V0ZM31.5 2C32.0523 2 32.5 1.55228 32.5 1C32.5 0.447715 32.0523 0 31.5 0V2ZM38.5 0C37.9477 0 37.5 0.447715 37.5 1C37.5 1.55228 37.9477 2 38.5 2V0ZM45.5 2C46.0523 2 46.5 1.55228 46.5 1C46.5 0.447715 46.0523 0 45.5 0V2ZM52.5 0C51.9477 0 51.5 0.447715 51.5 1C51.5 1.55228 51.9477 2 52.5 2V0ZM59.5 2C60.0523 2 60.5 1.55228 60.5 1C60.5 0.447715 60.0523 0 59.5 0V2ZM66.5 0C65.9477 0 65.5 0.447715 65.5 1C65.5 1.55228 65.9477 2 66.5 2V0ZM73.5 2C74.0523 2 74.5 1.55228 74.5 1C74.5 0.447715 74.0523 0 73.5 0V2ZM80.5 0C79.9477 0 79.5 0.447715 79.5 1C79.5 1.55228 79.9477 2 80.5 2V0ZM87.5 2C88.0523 2 88.5 1.55228 88.5 1C88.5 0.447715 88.0523 0 87.5 0V2ZM94.5 0C93.9477 0 93.5 0.447715 93.5 1C93.5 1.55228 93.9477 2 94.5 2V0ZM101.5 2C102.052 2 102.5 1.55228 102.5 1C102.5 0.447715 102.052 0 101.5 0V2ZM108.5 0C107.948 0 107.5 0.447715 107.5 1C107.5 1.55228 107.948 2 108.5 2V0ZM115.5 2C116.052 2 116.5 1.55228 116.5 1C116.5 0.447715 116.052 0 115.5 0V2ZM122.5 0C121.948 0 121.5 0.447715 121.5 1C121.5 1.55228 121.948 2 122.5 2V0ZM129.5 2C130.052 2 130.5 1.55228 130.5 1C130.5 0.447715 130.052 0 129.5 0V2ZM136.5 0C135.948 0 135.5 0.447715 135.5 1C135.5 1.55228 135.948 2 136.5 2V0ZM143.5 2C144.052 2 144.5 1.55228 144.5 1C144.5 0.447715 144.052 0 143.5 0V2ZM150.5 0C149.948 0 149.5 0.447715 149.5 1C149.5 1.55228 149.948 2 150.5 2V0ZM157.5 2C158.052 2 158.5 1.55228 158.5 1C158.5 0.447715 158.052 0 157.5 0V2ZM164.5 0C163.948 0 163.5 0.447715 163.5 1C163.5 1.55228 163.948 2 164.5 2V0ZM171.5 2C172.052 2 172.5 1.55228 172.5 1C172.5 0.447715 172.052 0 171.5 0V2ZM178.5 0C177.948 0 177.5 0.447715 177.5 1C177.5 1.55228 177.948 2 178.5 2V0ZM185.5 2C186.052 2 186.5 1.55228 186.5 1C186.5 0.447715 186.052 0 185.5 0V2ZM192.5 0C191.948 0 191.5 0.447715 191.5 1C191.5 1.55228 191.948 2 192.5 2V0ZM199.5 2C200.052 2 200.5 1.55228 200.5 1C200.5 0.447715 200.052 0 199.5 0V2ZM206.5 0C205.948 0 205.5 0.447715 205.5 1C205.5 1.55228 205.948 2 206.5 2V0ZM213.5 2C214.052 2 214.5 1.55228 214.5 1C214.5 0.447715 214.052 0 213.5 0V2ZM220.5 0C219.948 0 219.5 0.447715 219.5 1C219.5 1.55228 219.948 2 220.5 2V0ZM227.5 2C228.052 2 228.5 1.55228 228.5 1C228.5 0.447715 228.052 0 227.5 0V2ZM234.5 0C233.948 0 233.5 0.447715 233.5 1C233.5 1.55228 233.948 2 234.5 2V0ZM241.5 2C242.052 2 242.5 1.55228 242.5 1C242.5 0.447715 242.052 0 241.5 0V2ZM248.5 0C247.948 0 247.5 0.447715 247.5 1C247.5 1.55228 247.948 2 248.5 2V0ZM255.5 2C256.052 2 256.5 1.55228 256.5 1C256.5 0.447715 256.052 0 255.5 0V2ZM262.5 0C261.948 0 261.5 0.447715 261.5 1C261.5 1.55228 261.948 2 262.5 2V0ZM269.5 2C270.052 2 270.5 1.55228 270.5 1C270.5 0.447715 270.052 0 269.5 0V2ZM276.5 0C275.948 0 275.5 0.447715 275.5 1C275.5 1.55228 275.948 2 276.5 2V0ZM283.5 2C284.052 2 284.5 1.55228 284.5 1C284.5 0.447715 284.052 0 283.5 0V2ZM290.5 0C289.948 0 289.5 0.447715 289.5 1C289.5 1.55228 289.948 2 290.5 2V0ZM297.5 2C298.052 2 298.5 1.55228 298.5 1C298.5 0.447715 298.052 0 297.5 0V2ZM304.5 0C303.948 0 303.5 0.447715 303.5 1C303.5 1.55228 303.948 2 304.5 2V0ZM311.5 2C312.052 2 312.5 1.55228 312.5 1C312.5 0.447715 312.052 0 311.5 0V2ZM318.5 0C317.948 0 317.5 0.447715 317.5 1C317.5 1.55228 317.948 2 318.5 2V0ZM325.5 2C326.052 2 326.5 1.55228 326.5 1C326.5 0.447715 326.052 0 325.5 0V2ZM332.5 0C331.948 0 331.5 0.447715 331.5 1C331.5 1.55228 331.948 2 332.5 2V0ZM339.5 2C340.052 2 340.5 1.55228 340.5 1C340.5 0.447715 340.052 0 339.5 0V2ZM346.5 0C345.948 0 345.5 0.447715 345.5 1C345.5 1.55228 345.948 2 346.5 2V0ZM353.5 2C354.052 2 354.5 1.55228 354.5 1C354.5 0.447715 354.052 0 353.5 0V2ZM360.5 0C359.948 0 359.5 0.447715 359.5 1C359.5 1.55228 359.948 2 360.5 2V0ZM367.5 2C368.052 2 368.5 1.55228 368.5 1C368.5 0.447715 368.052 0 367.5 0V2ZM374.5 0C373.948 0 373.5 0.447715 373.5 1C373.5 1.55228 373.948 2 374.5 2V0ZM381.5 2C382.052 2 382.5 1.55228 382.5 1C382.5 0.447715 382.052 0 381.5 0V2ZM388.5 0C387.948 0 387.5 0.447715 387.5 1C387.5 1.55228 387.948 2 388.5 2V0ZM395.5 2C396.052 2 396.5 1.55228 396.5 1C396.5 0.447715 396.052 0 395.5 0V2ZM402.5 0C401.948 0 401.5 0.447715 401.5 1C401.5 1.55228 401.948 2 402.5 2V0ZM409.5 2C410.052 2 410.5 1.55228 410.5 1C410.5 0.447715 410.052 0 409.5 0V2ZM416.5 0C415.948 0 415.5 0.447715 415.5 1C415.5 1.55228 415.948 2 416.5 2V0ZM0 2L3.5 2V0L0 0L0 2ZM10.5 2L17.5 2V0L10.5 0V2ZM24.5 2L31.5 2V0L24.5 0V2ZM38.5 2L45.5 2V0L38.5 0V2ZM52.5 2L59.5 2V0L52.5 0V2ZM66.5 2L73.5 2V0L66.5 0V2ZM80.5 2L87.5 2V0L80.5 0V2ZM94.5 2L101.5 2V0L94.5 0V2ZM108.5 2L115.5 2V0L108.5 0V2ZM122.5 2L129.5 2V0L122.5 0V2ZM136.5 2L143.5 2V0L136.5 0V2ZM150.5 2L157.5 2V0L150.5 0V2ZM164.5 2L171.5 2V0L164.5 0V2ZM178.5 2L185.5 2V0L178.5 0V2ZM192.5 2L199.5 2V0L192.5 0V2ZM206.5 2L213.5 2V0L206.5 0V2ZM220.5 2L227.5 2V0L220.5 0V2ZM234.5 2L241.5 2V0L234.5 0V2ZM248.5 2L255.5 2V0L248.5 0V2ZM262.5 2L269.5 2V0L262.5 0V2ZM276.5 2L283.5 2V0L276.5 0V2ZM290.5 2L297.5 2V0L290.5 0V2ZM304.5 2L311.5 2V0L304.5 0V2ZM318.5 2L325.5 2V0L318.5 0V2ZM332.5 2L339.5 2V0L332.5 0V2ZM346.5 2L353.5 2V0L346.5 0V2ZM360.5 2L367.5 2V0L360.5 0V2ZM374.5 2L381.5 2V0L374.5 0V2ZM388.5 2L395.5 2V0L388.5 0V2ZM402.5 2L409.5 2V0L402.5 0V2ZM416.5 2L420 2V0L416.5 0V2Z" fill="#DBDDDE"/>
</svg>
