<svg width="270" height="108" viewBox="0 0 270 108" fill="none" xmlns="http://www.w3.org/2000/svg">
<path d="M0 41C0 41.5523 0.447715 42 1 42C1.55228 42 2 41.5523 2 41H0ZM2 1C2 0.447716 1.55228 0 1 0C0.447715 0 0 0.447716 0 1H2ZM2 37.6667C2 37.1144 1.55228 36.6667 1 36.6667C0.447715 36.6667 0 37.1144 0 37.6667H2ZM0 31C0 31.5523 0.447715 32 1 32C1.55228 32 2 31.5523 2 31H0ZM2 24.3333C2 23.781 1.55228 23.3333 1 23.3333C0.447715 23.3333 0 23.781 0 24.3333H2ZM0 17.6667C0 18.219 0.447715 18.6667 1 18.6667C1.55228 18.6667 2 18.219 2 17.6667H0ZM2 11C2 10.4477 1.55228 10 1 10C0.447715 10 0 10.4477 0 11H2ZM0 4.33334C0 4.88562 0.447715 5.33334 1 5.33334C1.55228 5.33334 2 4.88562 2 4.33334H0ZM2 41V37.6667H0L0 41H2ZM2 31L2 24.3333H0L0 31H2ZM2 17.6667L2 11H0L0 17.6667H2ZM2 4.33334L2 1H0L0 4.33334H2Z" fill="#DBDDDE"/>
<path d="M264 43C264.552 43 265 42.5523 265 42C265 41.4477 264.552 41 264 41V43ZM4.46053 43C5.01281 43 5.46053 42.5523 5.46053 42C5.46053 41.4477 5.01281 41 4.46053 41V43ZM11.3816 41C10.8293 41 10.3816 41.4477 10.3816 42C10.3816 42.5523 10.8293 43 11.3816 43V41ZM18.3026 43C18.8549 43 19.3026 42.5523 19.3026 42C19.3026 41.4477 18.8549 41 18.3026 41V43ZM25.2237 41C24.6714 41 24.2237 41.4477 24.2237 42C24.2237 42.5523 24.6714 43 25.2237 43V41ZM32.1447 43C32.697 43 33.1447 42.5523 33.1447 42C33.1447 41.4477 32.697 41 32.1447 41V43ZM39.0658 41C38.5135 41 38.0658 41.4477 38.0658 42C38.0658 42.5523 38.5135 43 39.0658 43V41ZM45.9868 43C46.5391 43 46.9868 42.5523 46.9868 42C46.9868 41.4477 46.5391 41 45.9868 41V43ZM52.9079 41C52.3556 41 51.9079 41.4477 51.9079 42C51.9079 42.5523 52.3556 43 52.9079 43V41ZM59.8289 43C60.3812 43 60.8289 42.5523 60.8289 42C60.8289 41.4477 60.3812 41 59.8289 41V43ZM66.75 41C66.1977 41 65.75 41.4477 65.75 42C65.75 42.5523 66.1977 43 66.75 43V41ZM73.671 43C74.2233 43 74.671 42.5523 74.671 42C74.671 41.4477 74.2233 41 73.671 41V43ZM80.5921 41C80.0398 41 79.5921 41.4477 79.5921 42C79.5921 42.5523 80.0398 43 80.5921 43V41ZM87.5132 43C88.0654 43 88.5132 42.5523 88.5132 42C88.5132 41.4477 88.0654 41 87.5132 41V43ZM94.4342 41C93.8819 41 93.4342 41.4477 93.4342 42C93.4342 42.5523 93.8819 43 94.4342 43V41ZM101.355 43C101.908 43 102.355 42.5523 102.355 42C102.355 41.4477 101.908 41 101.355 41V43ZM108.276 41C107.724 41 107.276 41.4477 107.276 42C107.276 42.5523 107.724 43 108.276 43V41ZM115.197 43C115.75 43 116.197 42.5523 116.197 42C116.197 41.4477 115.75 41 115.197 41V43ZM122.118 41C121.566 41 121.118 41.4477 121.118 42C121.118 42.5523 121.566 43 122.118 43V41ZM129.039 43C129.592 43 130.039 42.5523 130.039 42C130.039 41.4477 129.592 41 129.039 41V43ZM135.961 41C135.408 41 134.961 41.4477 134.961 42C134.961 42.5523 135.408 43 135.961 43V41ZM142.882 43C143.434 43 143.882 42.5523 143.882 42C143.882 41.4477 143.434 41 142.882 41V43ZM149.803 41C149.25 41 148.803 41.4477 148.803 42C148.803 42.5523 149.25 43 149.803 43V41ZM156.724 43C157.276 43 157.724 42.5523 157.724 42C157.724 41.4477 157.276 41 156.724 41V43ZM163.645 41C163.092 41 162.645 41.4477 162.645 42C162.645 42.5523 163.092 43 163.645 43V41ZM170.566 43C171.118 43 171.566 42.5523 171.566 42C171.566 41.4477 171.118 41 170.566 41V43ZM177.487 41C176.935 41 176.487 41.4477 176.487 42C176.487 42.5523 176.935 43 177.487 43V41ZM184.408 43C184.96 43 185.408 42.5523 185.408 42C185.408 41.4477 184.96 41 184.408 41V43ZM191.329 41C190.777 41 190.329 41.4477 190.329 42C190.329 42.5523 190.777 43 191.329 43V41ZM198.25 43C198.802 43 199.25 42.5523 199.25 42C199.25 41.4477 198.802 41 198.25 41V43ZM205.171 41C204.619 41 204.171 41.4477 204.171 42C204.171 42.5523 204.619 43 205.171 43V41ZM212.092 43C212.644 43 213.092 42.5523 213.092 42C213.092 41.4477 212.644 41 212.092 41V43ZM219.013 41C218.461 41 218.013 41.4477 218.013 42C218.013 42.5523 218.461 43 219.013 43V41ZM225.934 43C226.486 43 226.934 42.5523 226.934 42C226.934 41.4477 226.486 41 225.934 41V43ZM232.855 41C232.303 41 231.855 41.4477 231.855 42C231.855 42.5523 232.303 43 232.855 43V41ZM239.776 43C240.329 43 240.776 42.5523 240.776 42C240.776 41.4477 240.329 41 239.776 41V43ZM246.697 41C246.145 41 245.697 41.4477 245.697 42C245.697 42.5523 246.145 43 246.697 43V41ZM253.618 43C254.171 43 254.618 42.5523 254.618 42C254.618 41.4477 254.171 41 253.618 41V43ZM260.539 41C259.987 41 259.539 41.4477 259.539 42C259.539 42.5523 259.987 43 260.539 43V41ZM1 43H4.46053V41H1L1 43ZM11.3816 43H18.3026V41H11.3816V43ZM25.2237 43H32.1447V41H25.2237V43ZM39.0658 43H45.9868V41H39.0658V43ZM52.9079 43H59.8289V41H52.9079V43ZM66.75 43H73.671V41H66.75V43ZM80.5921 43H87.5132V41H80.5921V43ZM94.4342 43L101.355 43V41L94.4342 41V43ZM108.276 43H115.197V41H108.276V43ZM122.118 43H129.039V41H122.118V43ZM135.961 43H142.882V41H135.961V43ZM149.803 43H156.724V41H149.803V43ZM163.645 43H170.566V41H163.645V43ZM177.487 43H184.408V41H177.487V43ZM191.329 43H198.25V41H191.329V43ZM205.171 43H212.092V41H205.171V43ZM219.013 43L225.934 43V41L219.013 41V43ZM232.855 43H239.776V41H232.855V43ZM246.697 43H253.618V41H246.697V43ZM260.539 43H264V41H260.539V43Z" fill="#DBDDDE"/>
<path d="M264 107.774L269.774 102L264 96.2265L258.226 102L264 107.774ZM265 42C265 41.4477 264.552 41 264 41C263.448 41 263 41.4477 263 42H265ZM265 98.25C265 97.6977 264.552 97.25 264 97.25C263.448 97.25 263 97.6977 263 98.25H265ZM263 90.75C263 91.3023 263.448 91.75 264 91.75C264.552 91.75 265 91.3023 265 90.75H263ZM265 83.25C265 82.6977 264.552 82.25 264 82.25C263.448 82.25 263 82.6977 263 83.25H265ZM263 75.75C263 76.3023 263.448 76.75 264 76.75C264.552 76.75 265 76.3023 265 75.75H263ZM265 68.25C265 67.6977 264.552 67.25 264 67.25C263.448 67.25 263 67.6977 263 68.25H265ZM263 60.75C263 61.3023 263.448 61.75 264 61.75C264.552 61.75 265 61.3023 265 60.75H263ZM265 53.25C265 52.6977 264.552 52.25 264 52.25C263.448 52.25 263 52.6977 263 53.25H265ZM263 45.75C263 46.3023 263.448 46.75 264 46.75C264.552 46.75 265 46.3023 265 45.75H263ZM265 102V98.25H263V102H265ZM265 90.75V83.25H263V90.75H265ZM265 75.75V68.25H263V75.75H265ZM265 60.75V53.25H263V60.75H265ZM265 45.75V42H263V45.75H265Z" fill="#DBDDDE"/>
</svg>
