<svg width="437" height="117" viewBox="0 0 437 117" fill="none" xmlns="http://www.w3.org/2000/svg">
<path d="M6 116.774L11.7735 111L6 105.226L0.226497 111L6 116.774ZM7 51C7 50.4477 6.55228 50 6 50C5.44772 50 5 50.4477 5 51H7ZM7 107.25C7 106.698 6.55228 106.25 6 106.25C5.44772 106.25 5 106.698 5 107.25H7ZM5 99.75C5 100.302 5.44772 100.75 6 100.75C6.55228 100.75 7 100.302 7 99.75H5ZM7 92.25C7 91.6977 6.55228 91.25 6 91.25C5.44772 91.25 5 91.6977 5 92.25H7ZM5 84.75C5 85.3023 5.44772 85.75 6 85.75C6.55228 85.75 7 85.3023 7 84.75H5ZM7 77.25C7 76.6977 6.55228 76.25 6 76.25C5.44772 76.25 5 76.6977 5 77.25H7ZM5 69.75C5 70.3023 5.44772 70.75 6 70.75C6.55228 70.75 7 70.3023 7 69.75H5ZM7 62.25C7 61.6977 6.55228 61.25 6 61.25C5.44772 61.25 5 61.6977 5 62.25H7ZM5 54.75C5 55.3023 5.44772 55.75 6 55.75C6.55228 55.75 7 55.3023 7 54.75H5ZM7 111V107.25H5V111H7ZM7 99.75V92.25H5V99.75H7ZM7 84.75V77.25H5V84.75H7ZM7 69.75L7 62.25H5L5 69.75H7ZM7 54.75V51H5V54.75H7Z" fill="#DBDDDE"/>
<path d="M436 52C436.552 52 437 51.5523 437 51C437 50.4477 436.552 50 436 50V52ZM9.46774 52C10.02 52 10.4677 51.5523 10.4677 51C10.4677 50.4477 10.02 50 9.46774 50V52ZM16.4032 50C15.8509 50 15.4032 50.4477 15.4032 51C15.4032 51.5523 15.8509 52 16.4032 52V50ZM23.3387 52C23.891 52 24.3387 51.5523 24.3387 51C24.3387 50.4477 23.891 50 23.3387 50V52ZM30.2742 50C29.7219 50 29.2742 50.4477 29.2742 51C29.2742 51.5523 29.7219 52 30.2742 52V50ZM37.2097 52C37.762 52 38.2097 51.5523 38.2097 51C38.2097 50.4477 37.762 50 37.2097 50V52ZM44.1452 50C43.5929 50 43.1452 50.4477 43.1452 51C43.1452 51.5523 43.5929 52 44.1452 52V50ZM51.0807 52C51.6329 52 52.0807 51.5523 52.0807 51C52.0807 50.4477 51.6329 50 51.0807 50V52ZM58.0161 50C57.4639 50 57.0161 50.4477 57.0161 51C57.0161 51.5523 57.4639 52 58.0161 52V50ZM64.9516 52C65.5039 52 65.9516 51.5523 65.9516 51C65.9516 50.4477 65.5039 50 64.9516 50V52ZM71.8871 50C71.3348 50 70.8871 50.4477 70.8871 51C70.8871 51.5523 71.3348 52 71.8871 52V50ZM78.8226 52C79.3749 52 79.8226 51.5523 79.8226 51C79.8226 50.4477 79.3749 50 78.8226 50V52ZM85.7581 50C85.2058 50 84.7581 50.4477 84.7581 51C84.7581 51.5523 85.2058 52 85.7581 52V50ZM92.6936 52C93.2459 52 93.6936 51.5523 93.6936 51C93.6936 50.4477 93.2459 50 92.6936 50V52ZM99.6291 50C99.0768 50 98.6291 50.4477 98.6291 51C98.6291 51.5523 99.0768 52 99.6291 52V50ZM106.565 52C107.117 52 107.565 51.5523 107.565 51C107.565 50.4477 107.117 50 106.565 50V52ZM113.5 50C112.948 50 112.5 50.4477 112.5 51C112.5 51.5523 112.948 52 113.5 52V50ZM120.436 52C120.988 52 121.436 51.5523 121.436 51C121.436 50.4477 120.988 50 120.436 50V52ZM127.371 50C126.819 50 126.371 50.4477 126.371 51C126.371 51.5523 126.819 52 127.371 52V50ZM134.306 52C134.859 52 135.306 51.5523 135.306 51C135.306 50.4477 134.859 50 134.306 50V52ZM141.242 50C140.69 50 140.242 50.4477 140.242 51C140.242 51.5523 140.69 52 141.242 52V50ZM148.177 52C148.73 52 149.177 51.5523 149.177 51C149.177 50.4477 148.73 50 148.177 50V52ZM155.113 50C154.561 50 154.113 50.4477 154.113 51C154.113 51.5523 154.561 52 155.113 52V50ZM162.048 52C162.601 52 163.048 51.5523 163.048 51C163.048 50.4477 162.601 50 162.048 50V52ZM168.984 50C168.432 50 167.984 50.4477 167.984 51C167.984 51.5523 168.432 52 168.984 52V50ZM175.919 52C176.472 52 176.919 51.5523 176.919 51C176.919 50.4477 176.472 50 175.919 50V52ZM182.855 50C182.303 50 181.855 50.4477 181.855 51C181.855 51.5523 182.303 52 182.855 52V50ZM189.79 52C190.343 52 190.79 51.5523 190.79 51C190.79 50.4477 190.343 50 189.79 50V52ZM196.726 50C196.174 50 195.726 50.4477 195.726 51C195.726 51.5523 196.174 52 196.726 52V50ZM203.661 52C204.214 52 204.661 51.5523 204.661 51C204.661 50.4477 204.214 50 203.661 50V52ZM210.597 50C210.045 50 209.597 50.4477 209.597 51C209.597 51.5523 210.045 52 210.597 52V50ZM217.532 52C218.085 52 218.532 51.5523 218.532 51C218.532 50.4477 218.085 50 217.532 50V52ZM224.468 50C223.916 50 223.468 50.4477 223.468 51C223.468 51.5523 223.916 52 224.468 52V50ZM231.403 52C231.956 52 232.403 51.5523 232.403 51C232.403 50.4477 231.956 50 231.403 50V52ZM238.339 50C237.786 50 237.339 50.4477 237.339 51C237.339 51.5523 237.786 52 238.339 52V50ZM245.274 52C245.827 52 246.274 51.5523 246.274 51C246.274 50.4477 245.827 50 245.274 50V52ZM252.21 50C251.657 50 251.21 50.4477 251.21 51C251.21 51.5523 251.657 52 252.21 52V50ZM259.145 52C259.698 52 260.145 51.5523 260.145 51C260.145 50.4477 259.698 50 259.145 50V52ZM266.081 50C265.528 50 265.081 50.4477 265.081 51C265.081 51.5523 265.528 52 266.081 52V50ZM273.016 52C273.568 52 274.016 51.5523 274.016 51C274.016 50.4477 273.568 50 273.016 50V52ZM279.952 50C279.399 50 278.952 50.4477 278.952 51C278.952 51.5523 279.399 52 279.952 52V50ZM286.887 52C287.439 52 287.887 51.5523 287.887 51C287.887 50.4477 287.439 50 286.887 50V52ZM293.823 50C293.27 50 292.823 50.4477 292.823 51C292.823 51.5523 293.27 52 293.823 52V50ZM300.758 52C301.31 52 301.758 51.5523 301.758 51C301.758 50.4477 301.31 50 300.758 50V52ZM307.694 50C307.141 50 306.694 50.4477 306.694 51C306.694 51.5523 307.141 52 307.694 52V50ZM314.629 52C315.181 52 315.629 51.5523 315.629 51C315.629 50.4477 315.181 50 314.629 50V52ZM321.565 50C321.012 50 320.565 50.4477 320.565 51C320.565 51.5523 321.012 52 321.565 52V50ZM328.5 52C329.052 52 329.5 51.5523 329.5 51C329.5 50.4477 329.052 50 328.5 50V52ZM335.436 50C334.883 50 334.436 50.4477 334.436 51C334.436 51.5523 334.883 52 335.436 52V50ZM342.371 52C342.923 52 343.371 51.5523 343.371 51C343.371 50.4477 342.923 50 342.371 50V52ZM349.307 50C348.754 50 348.307 50.4477 348.307 51C348.307 51.5523 348.754 52 349.307 52V50ZM356.242 52C356.794 52 357.242 51.5523 357.242 51C357.242 50.4477 356.794 50 356.242 50V52ZM363.177 50C362.625 50 362.177 50.4477 362.177 51C362.177 51.5523 362.625 52 363.177 52V50ZM370.113 52C370.665 52 371.113 51.5523 371.113 51C371.113 50.4477 370.665 50 370.113 50V52ZM377.048 50C376.496 50 376.048 50.4477 376.048 51C376.048 51.5523 376.496 52 377.048 52V50ZM383.984 52C384.536 52 384.984 51.5523 384.984 51C384.984 50.4477 384.536 50 383.984 50V52ZM390.919 50C390.367 50 389.919 50.4477 389.919 51C389.919 51.5523 390.367 52 390.919 52V50ZM397.855 52C398.407 52 398.855 51.5523 398.855 51C398.855 50.4477 398.407 50 397.855 50V52ZM404.79 50C404.238 50 403.79 50.4477 403.79 51C403.79 51.5523 404.238 52 404.79 52V50ZM411.726 52C412.278 52 412.726 51.5523 412.726 51C412.726 50.4477 412.278 50 411.726 50V52ZM418.661 50C418.109 50 417.661 50.4477 417.661 51C417.661 51.5523 418.109 52 418.661 52V50ZM425.597 52C426.149 52 426.597 51.5523 426.597 51C426.597 50.4477 426.149 50 425.597 50V52ZM432.532 50C431.98 50 431.532 50.4477 431.532 51C431.532 51.5523 431.98 52 432.532 52V50ZM6 52H9.46774V50H6V52ZM16.4032 52H23.3387V50H16.4032V52ZM30.2742 52H37.2097V50H30.2742V52ZM44.1452 52H51.0807V50H44.1452V52ZM58.0161 52H64.9516V50H58.0161V52ZM71.8871 52H78.8226V50H71.8871V52ZM85.7581 52H92.6936V50H85.7581V52ZM99.6291 52L106.565 52V50L99.6291 50V52ZM113.5 52H120.436V50H113.5V52ZM127.371 52H134.306V50H127.371V52ZM141.242 52H148.177V50H141.242V52ZM155.113 52H162.048V50H155.113V52ZM168.984 52H175.919V50H168.984V52ZM182.855 52H189.79V50H182.855V52ZM196.726 52H203.661V50H196.726V52ZM210.597 52H217.532V50H210.597V52ZM224.468 52L231.403 52V50L224.468 50V52ZM238.339 52H245.274V50H238.339V52ZM252.21 52H259.145V50H252.21V52ZM266.081 52H273.016V50H266.081V52ZM279.952 52H286.887V50H279.952V52ZM293.823 52L300.758 52V50L293.823 50V52ZM307.694 52H314.629V50H307.694V52ZM321.565 52H328.5V50H321.565V52ZM335.436 52H342.371V50H335.436V52ZM349.307 52H356.242V50H349.307V52ZM363.177 52H370.113V50H363.177V52ZM377.048 52H383.984V50H377.048V52ZM390.919 52H397.855V50H390.919V52ZM404.79 52H411.726V50H404.79V52ZM418.661 52L425.597 52V50L418.661 50V52ZM432.532 52H436V50H432.532V52Z" fill="#DBDDDE"/>
<path d="M435 51C435 51.5523 435.448 52 436 52C436.552 52 437 51.5523 437 51H435ZM437 1C437 0.447716 436.552 0 436 0C435.448 0 435 0.447716 435 1H437ZM437 47.875C437 47.3227 436.552 46.875 436 46.875C435.448 46.875 435 47.3227 435 47.875H437ZM435 41.625C435 42.1773 435.448 42.625 436 42.625C436.552 42.625 437 42.1773 437 41.625H435ZM437 35.375C437 34.8227 436.552 34.375 436 34.375C435.448 34.375 435 34.8227 435 35.375H437ZM435 29.125C435 29.6773 435.448 30.125 436 30.125C436.552 30.125 437 29.6773 437 29.125H435ZM437 22.875C437 22.3227 436.552 21.875 436 21.875C435.448 21.875 435 22.3227 435 22.875H437ZM435 16.625C435 17.1773 435.448 17.625 436 17.625C436.552 17.625 437 17.1773 437 16.625H435ZM437 10.375C437 9.82272 436.552 9.375 436 9.375C435.448 9.375 435 9.82272 435 10.375H437ZM435 4.125C435 4.67728 435.448 5.125 436 5.125C436.552 5.125 437 4.67728 437 4.125H435ZM437 51V47.875H435V51H437ZM437 41.625V35.375H435V41.625H437ZM437 29.125V22.875H435V29.125H437ZM437 16.625V10.375H435V16.625H437ZM437 4.125V1H435V4.125H437Z" fill="#DBDDDE"/>
</svg>
