<svg width="771" height="165" viewBox="0 0 771 165" fill="none" xmlns="http://www.w3.org/2000/svg">
<path d="M0 66C0 66.5523 0.447715 67 1 67C1.55228 67 2 66.5523 2 66H0ZM2 1C2 0.447716 1.55228 0 1 0C0.447715 0 0 0.447716 0 1H2ZM2 62.75C2 62.1977 1.55228 61.75 1 61.75C0.447715 61.75 0 62.1977 0 62.75H2ZM0 56.25C0 56.8023 0.447715 57.25 1 57.25C1.55228 57.25 2 56.8023 2 56.25H0ZM2 49.75C2 49.1977 1.55228 48.75 1 48.75C0.447715 48.75 0 49.1977 0 49.75H2ZM0 43.25C0 43.8023 0.447715 44.25 1 44.25C1.55228 44.25 2 43.8023 2 43.25H0ZM2 36.75C2 36.1977 1.55228 35.75 1 35.75C0.447715 35.75 0 36.1977 0 36.75H2ZM0 30.25C0 30.8023 0.447715 31.25 1 31.25C1.55228 31.25 2 30.8023 2 30.25H0ZM2 23.75C2 23.1977 1.55228 22.75 1 22.75C0.447715 22.75 0 23.1977 0 23.75H2ZM0 17.25C0 17.8023 0.447715 18.25 1 18.25C1.55228 18.25 2 17.8023 2 17.25H0ZM2 10.75C2 10.1977 1.55228 9.75 1 9.75C0.447715 9.75 0 10.1977 0 10.75H2ZM0 4.25C0 4.80228 0.447715 5.25 1 5.25C1.55228 5.25 2 4.80228 2 4.25H0ZM2 66V62.75H0L0 66H2ZM2 56.25L2 49.75H0L0 56.25H2ZM2 43.25L2 36.75H0L0 43.25H2ZM2 30.25L2 23.75H0L0 30.25H2ZM2 17.25L2 10.75H0L0 17.25H2ZM2 4.25V1H0L0 4.25H2Z" fill="#DBDDDE"/>
<path d="M764 67C764.552 67 765 66.5523 765 66C765 65.4477 764.552 65 764 65V67ZM4.46818 67C5.02047 67 5.46818 66.5523 5.46818 66C5.46818 65.4477 5.02047 65 4.46818 65V67ZM11.4045 65C10.8523 65 10.4045 65.4477 10.4045 66C10.4045 66.5523 10.8523 67 11.4045 67V65ZM18.3409 67C18.8932 67 19.3409 66.5523 19.3409 66C19.3409 65.4477 18.8932 65 18.3409 65V67ZM25.2773 65C24.725 65 24.2773 65.4477 24.2773 66C24.2773 66.5523 24.725 67 25.2773 67V65ZM32.2136 67C32.7659 67 33.2136 66.5523 33.2136 66C33.2136 65.4477 32.7659 65 32.2136 65V67ZM39.15 65C38.5977 65 38.15 65.4477 38.15 66C38.15 66.5523 38.5977 67 39.15 67V65ZM46.0864 67C46.6386 67 47.0864 66.5523 47.0864 66C47.0864 65.4477 46.6386 65 46.0864 65V67ZM53.0227 65C52.4704 65 52.0227 65.4477 52.0227 66C52.0227 66.5523 52.4704 67 53.0227 67V65ZM59.9591 67C60.5114 67 60.9591 66.5523 60.9591 66C60.9591 65.4477 60.5114 65 59.9591 65V67ZM66.8955 65C66.3432 65 65.8955 65.4477 65.8955 66C65.8955 66.5523 66.3432 67 66.8955 67V65ZM73.8318 67C74.3841 67 74.8318 66.5523 74.8318 66C74.8318 65.4477 74.3841 65 73.8318 65V67ZM80.7682 65C80.2159 65 79.7682 65.4477 79.7682 66C79.7682 66.5523 80.2159 67 80.7682 67V65ZM87.7045 67C88.2568 67 88.7045 66.5523 88.7045 66C88.7045 65.4477 88.2568 65 87.7045 65V67ZM94.6409 65C94.0886 65 93.6409 65.4477 93.6409 66C93.6409 66.5523 94.0886 67 94.6409 67V65ZM101.577 67C102.13 67 102.577 66.5523 102.577 66C102.577 65.4477 102.13 65 101.577 65V67ZM108.514 65C107.961 65 107.514 65.4477 107.514 66C107.514 66.5523 107.961 67 108.514 67V65ZM115.45 67C116.002 67 116.45 66.5523 116.45 66C116.45 65.4477 116.002 65 115.45 65V67ZM122.386 65C121.834 65 121.386 65.4477 121.386 66C121.386 66.5523 121.834 67 122.386 67V65ZM129.323 67C129.875 67 130.323 66.5523 130.323 66C130.323 65.4477 129.875 65 129.323 65V67ZM136.259 65C135.707 65 135.259 65.4477 135.259 66C135.259 66.5523 135.707 67 136.259 67V65ZM143.195 67C143.748 67 144.195 66.5523 144.195 66C144.195 65.4477 143.748 65 143.195 65V67ZM150.132 65C149.58 65 149.132 65.4477 149.132 66C149.132 66.5523 149.58 67 150.132 67V65ZM157.068 67C157.62 67 158.068 66.5523 158.068 66C158.068 65.4477 157.62 65 157.068 65V67ZM164.005 65C163.452 65 163.005 65.4477 163.005 66C163.005 66.5523 163.452 67 164.005 67V65ZM170.941 67C171.493 67 171.941 66.5523 171.941 66C171.941 65.4477 171.493 65 170.941 65V67ZM177.877 65C177.325 65 176.877 65.4477 176.877 66C176.877 66.5523 177.325 67 177.877 67V65ZM184.814 67C185.366 67 185.814 66.5523 185.814 66C185.814 65.4477 185.366 65 184.814 65V67ZM191.75 65C191.198 65 190.75 65.4477 190.75 66C190.75 66.5523 191.198 67 191.75 67V65ZM198.686 67C199.239 67 199.686 66.5523 199.686 66C199.686 65.4477 199.239 65 198.686 65V67ZM205.623 65C205.071 65 204.623 65.4477 204.623 66C204.623 66.5523 205.071 67 205.623 67V65ZM212.559 67C213.111 67 213.559 66.5523 213.559 66C213.559 65.4477 213.111 65 212.559 65V67ZM219.496 65C218.943 65 218.496 65.4477 218.496 66C218.496 66.5523 218.943 67 219.496 67V65ZM226.432 67C226.984 67 227.432 66.5523 227.432 66C227.432 65.4477 226.984 65 226.432 65V67ZM233.368 65C232.816 65 232.368 65.4477 232.368 66C232.368 66.5523 232.816 67 233.368 67V65ZM240.305 67C240.857 67 241.305 66.5523 241.305 66C241.305 65.4477 240.857 65 240.305 65V67ZM247.241 65C246.689 65 246.241 65.4477 246.241 66C246.241 66.5523 246.689 67 247.241 67V65ZM254.177 67C254.73 67 255.177 66.5523 255.177 66C255.177 65.4477 254.73 65 254.177 65V67ZM261.114 65C260.561 65 260.114 65.4477 260.114 66C260.114 66.5523 260.561 67 261.114 67V65ZM268.05 67C268.602 67 269.05 66.5523 269.05 66C269.05 65.4477 268.602 65 268.05 65V67ZM274.987 65C274.434 65 273.987 65.4477 273.987 66C273.987 66.5523 274.434 67 274.987 67V65ZM281.923 67C282.475 67 282.923 66.5523 282.923 66C282.923 65.4477 282.475 65 281.923 65V67ZM288.859 65C288.307 65 287.859 65.4477 287.859 66C287.859 66.5523 288.307 67 288.859 67V65ZM295.796 67C296.348 67 296.796 66.5523 296.796 66C296.796 65.4477 296.348 65 295.796 65V67ZM302.732 65C302.18 65 301.732 65.4477 301.732 66C301.732 66.5523 302.18 67 302.732 67V65ZM309.668 67C310.221 67 310.668 66.5523 310.668 66C310.668 65.4477 310.221 65 309.668 65V67ZM316.605 65C316.052 65 315.605 65.4477 315.605 66C315.605 66.5523 316.052 67 316.605 67V65ZM323.541 67C324.093 67 324.541 66.5523 324.541 66C324.541 65.4477 324.093 65 323.541 65V67ZM330.477 65C329.925 65 329.477 65.4477 329.477 66C329.477 66.5523 329.925 67 330.477 67V65ZM337.414 67C337.966 67 338.414 66.5523 338.414 66C338.414 65.4477 337.966 65 337.414 65V67ZM344.35 65C343.798 65 343.35 65.4477 343.35 66C343.35 66.5523 343.798 67 344.35 67V65ZM351.287 67C351.839 67 352.287 66.5523 352.287 66C352.287 65.4477 351.839 65 351.287 65V67ZM358.223 65C357.671 65 357.223 65.4477 357.223 66C357.223 66.5523 357.671 67 358.223 67V65ZM365.159 67C365.712 67 366.159 66.5523 366.159 66C366.159 65.4477 365.712 65 365.159 65V67ZM372.096 65C371.543 65 371.096 65.4477 371.096 66C371.096 66.5523 371.543 67 372.096 67V65ZM379.032 67C379.584 67 380.032 66.5523 380.032 66C380.032 65.4477 379.584 65 379.032 65V67ZM385.968 65C385.416 65 384.968 65.4477 384.968 66C384.968 66.5523 385.416 67 385.968 67V65ZM392.905 67C393.457 67 393.905 66.5523 393.905 66C393.905 65.4477 393.457 65 392.905 65V67ZM399.841 65C399.289 65 398.841 65.4477 398.841 66C398.841 66.5523 399.289 67 399.841 67V65ZM406.778 67C407.33 67 407.778 66.5523 407.778 66C407.778 65.4477 407.33 65 406.778 65V67ZM413.714 65C413.162 65 412.714 65.4477 412.714 66C412.714 66.5523 413.162 67 413.714 67V65ZM420.65 67C421.203 67 421.65 66.5523 421.65 66C421.65 65.4477 421.203 65 420.65 65V67ZM427.587 65C427.034 65 426.587 65.4477 426.587 66C426.587 66.5523 427.034 67 427.587 67V65ZM434.523 67C435.075 67 435.523 66.5523 435.523 66C435.523 65.4477 435.075 65 434.523 65V67ZM441.459 65C440.907 65 440.459 65.4477 440.459 66C440.459 66.5523 440.907 67 441.459 67V65ZM448.396 67C448.948 67 449.396 66.5523 449.396 66C449.396 65.4477 448.948 65 448.396 65V67ZM455.332 65C454.78 65 454.332 65.4477 454.332 66C454.332 66.5523 454.78 67 455.332 67V65ZM462.269 67C462.821 67 463.269 66.5523 463.269 66C463.269 65.4477 462.821 65 462.269 65V67ZM469.205 65C468.653 65 468.205 65.4477 468.205 66C468.205 66.5523 468.653 67 469.205 67V65ZM476.141 67C476.694 67 477.141 66.5523 477.141 66C477.141 65.4477 476.694 65 476.141 65V67ZM483.078 65C482.525 65 482.078 65.4477 482.078 66C482.078 66.5523 482.525 67 483.078 67V65ZM490.014 67C490.566 67 491.014 66.5523 491.014 66C491.014 65.4477 490.566 65 490.014 65V67ZM496.95 65C496.398 65 495.95 65.4477 495.95 66C495.95 66.5523 496.398 67 496.95 67V65ZM503.887 67C504.439 67 504.887 66.5523 504.887 66C504.887 65.4477 504.439 65 503.887 65V67ZM510.823 65C510.271 65 509.823 65.4477 509.823 66C509.823 66.5523 510.271 67 510.823 67V65ZM517.759 67C518.312 67 518.759 66.5523 518.759 66C518.759 65.4477 518.312 65 517.759 65V67ZM524.696 65C524.144 65 523.696 65.4477 523.696 66C523.696 66.5523 524.144 67 524.696 67V65ZM531.632 67C532.184 67 532.632 66.5523 532.632 66C532.632 65.4477 532.184 65 531.632 65V67ZM538.568 65C538.016 65 537.568 65.4477 537.568 66C537.568 66.5523 538.016 67 538.568 67V65ZM545.505 67C546.057 67 546.505 66.5523 546.505 66C546.505 65.4477 546.057 65 545.505 65V67ZM552.441 65C551.889 65 551.441 65.4477 551.441 66C551.441 66.5523 551.889 67 552.441 67V65ZM559.378 67C559.93 67 560.378 66.5523 560.378 66C560.378 65.4477 559.93 65 559.378 65V67ZM566.314 65C565.762 65 565.314 65.4477 565.314 66C565.314 66.5523 565.762 67 566.314 67V65ZM573.25 67C573.802 67 574.25 66.5523 574.25 66C574.25 65.4477 573.802 65 573.25 65V67ZM580.187 65C579.634 65 579.187 65.4477 579.187 66C579.187 66.5523 579.634 67 580.187 67V65ZM587.123 67C587.675 67 588.123 66.5523 588.123 66C588.123 65.4477 587.675 65 587.123 65V67ZM594.059 65C593.507 65 593.059 65.4477 593.059 66C593.059 66.5523 593.507 67 594.059 67V65ZM600.996 67C601.548 67 601.996 66.5523 601.996 66C601.996 65.4477 601.548 65 600.996 65V67ZM607.932 65C607.38 65 606.932 65.4477 606.932 66C606.932 66.5523 607.38 67 607.932 67V65ZM614.868 67C615.421 67 615.868 66.5523 615.868 66C615.868 65.4477 615.421 65 614.868 65V67ZM621.805 65C621.252 65 620.805 65.4477 620.805 66C620.805 66.5523 621.252 67 621.805 67V65ZM628.741 67C629.293 67 629.741 66.5523 629.741 66C629.741 65.4477 629.293 65 628.741 65V67ZM635.677 65C635.125 65 634.677 65.4477 634.677 66C634.677 66.5523 635.125 67 635.677 67V65ZM642.614 67C643.166 67 643.614 66.5523 643.614 66C643.614 65.4477 643.166 65 642.614 65V67ZM649.55 65C648.998 65 648.55 65.4477 648.55 66C648.55 66.5523 648.998 67 649.55 67V65ZM656.486 67C657.039 67 657.486 66.5523 657.486 66C657.486 65.4477 657.039 65 656.486 65V67ZM663.423 65C662.87 65 662.423 65.4477 662.423 66C662.423 66.5523 662.87 67 663.423 67V65ZM670.359 67C670.911 67 671.359 66.5523 671.359 66C671.359 65.4477 670.911 65 670.359 65V67ZM677.295 65C676.743 65 676.295 65.4477 676.295 66C676.295 66.5523 676.743 67 677.295 67V65ZM684.232 67C684.784 67 685.232 66.5523 685.232 66C685.232 65.4477 684.784 65 684.232 65V67ZM691.168 65C690.616 65 690.168 65.4477 690.168 66C690.168 66.5523 690.616 67 691.168 67V65ZM698.104 67C698.657 67 699.104 66.5523 699.104 66C699.104 65.4477 698.657 65 698.104 65V67ZM705.041 65C704.488 65 704.041 65.4477 704.041 66C704.041 66.5523 704.488 67 705.041 67V65ZM711.977 67C712.529 67 712.977 66.5523 712.977 66C712.977 65.4477 712.529 65 711.977 65V67ZM718.913 65C718.361 65 717.913 65.4477 717.913 66C717.913 66.5523 718.361 67 718.913 67V65ZM725.85 67C726.402 67 726.85 66.5523 726.85 66C726.85 65.4477 726.402 65 725.85 65V67ZM732.786 65C732.234 65 731.786 65.4477 731.786 66C731.786 66.5523 732.234 67 732.786 67V65ZM739.722 67C740.275 67 740.722 66.5523 740.722 66C740.722 65.4477 740.275 65 739.722 65V67ZM746.659 65C746.106 65 745.659 65.4477 745.659 66C745.659 66.5523 746.106 67 746.659 67V65ZM753.595 67C754.147 67 754.595 66.5523 754.595 66C754.595 65.4477 754.147 65 753.595 65V67ZM760.531 65C759.979 65 759.531 65.4477 759.531 66C759.531 66.5523 759.979 67 760.531 67V65ZM1 67H4.46818V65H1L1 67ZM11.4045 67H18.3409V65H11.4045V67ZM25.2773 67H32.2136V65H25.2773V67ZM39.15 67H46.0864V65H39.15V67ZM53.0227 67H59.9591V65H53.0227V67ZM66.8955 67H73.8318V65H66.8955V67ZM80.7682 67H87.7045V65H80.7682V67ZM94.6409 67H101.577V65H94.6409V67ZM108.514 67H115.45V65H108.514V67ZM122.386 67H129.323V65H122.386V67ZM136.259 67H143.195V65H136.259V67ZM150.132 67H157.068V65H150.132V67ZM164.005 67H170.941V65H164.005V67ZM177.877 67H184.814V65H177.877V67ZM191.75 67L198.686 67V65L191.75 65V67ZM205.623 67H212.559V65H205.623V67ZM219.496 67H226.432V65H219.496V67ZM233.368 67H240.305V65H233.368V67ZM247.241 67H254.177V65H247.241V67ZM261.114 67H268.05V65H261.114V67ZM274.987 67H281.923V65H274.987V67ZM288.859 67H295.796V65H288.859V67ZM302.732 67H309.668V65H302.732V67ZM316.605 67L323.541 67V65L316.605 65V67ZM330.477 67H337.414V65H330.477V67ZM344.35 67H351.287V65H344.35V67ZM358.223 67H365.159V65H358.223V67ZM372.096 67H379.032V65H372.096V67ZM385.968 67H392.905V65H385.968V67ZM399.841 67H406.778V65H399.841V67ZM413.714 67H420.65V65H413.714V67ZM427.587 67H434.523V65H427.587V67ZM441.459 67L448.396 67V65H441.459V67ZM455.332 67H462.269V65H455.332V67ZM469.205 67H476.141V65H469.205V67ZM483.078 67H490.014V65H483.078V67ZM496.95 67H503.887V65H496.95V67ZM510.823 67H517.759V65H510.823V67ZM524.696 67H531.632V65H524.696V67ZM538.568 67H545.505V65H538.568V67ZM552.441 67H559.378V65H552.441V67ZM566.314 67H573.25V65H566.314V67ZM580.187 67H587.123V65H580.187V67ZM594.059 67H600.996V65H594.059V67ZM607.932 67H614.868V65H607.932V67ZM621.805 67H628.741V65H621.805V67ZM635.677 67H642.614V65H635.677V67ZM649.55 67H656.486V65H649.55V67ZM663.423 67H670.359V65H663.423V67ZM677.295 67H684.232V65H677.295V67ZM691.168 67H698.104V65H691.168V67ZM705.041 67H711.977V65H705.041V67ZM718.913 67H725.85V65H718.913V67ZM732.786 67H739.722V65H732.786V67ZM746.659 67H753.595V65H746.659V67ZM760.531 67H764V65H760.531V67Z" fill="#DBDDDE"/>
<path d="M765 164.774L770.774 159L765 153.226L759.226 159L765 164.774ZM766 66C766 65.4477 765.552 65 765 65C764.448 65 764 65.4477 764 66H766ZM766 155.679C766 155.126 765.552 154.679 765 154.679C764.448 154.679 764 155.126 764 155.679H766ZM764 149.036C764 149.588 764.448 150.036 765 150.036C765.552 150.036 766 149.588 766 149.036H764ZM766 142.393C766 141.841 765.552 141.393 765 141.393C764.448 141.393 764 141.841 764 142.393H766ZM764 135.75C764 136.302 764.448 136.75 765 136.75C765.552 136.75 766 136.302 766 135.75H764ZM766 129.107C766 128.555 765.552 128.107 765 128.107C764.448 128.107 764 128.555 764 129.107H766ZM764 122.464C764 123.017 764.448 123.464 765 123.464C765.552 123.464 766 123.017 766 122.464H764ZM766 115.821C766 115.269 765.552 114.821 765 114.821C764.448 114.821 764 115.269 764 115.821H766ZM764 109.179C764 109.731 764.448 110.179 765 110.179C765.552 110.179 766 109.731 766 109.179H764ZM766 102.536C766 101.983 765.552 101.536 765 101.536C764.448 101.536 764 101.983 764 102.536H766ZM764 95.8929C764 96.4451 764.448 96.8929 765 96.8929C765.552 96.8929 766 96.4451 766 95.8929H764ZM766 89.25C766 88.6977 765.552 88.25 765 88.25C764.448 88.25 764 88.6977 764 89.25H766ZM764 82.6071C764 83.1594 764.448 83.6071 765 83.6071C765.552 83.6071 766 83.1594 766 82.6071H764ZM766 75.9643C766 75.412 765.552 74.9643 765 74.9643C764.448 74.9643 764 75.412 764 75.9643H766ZM764 69.3214C764 69.8737 764.448 70.3214 765 70.3214C765.552 70.3214 766 69.8737 766 69.3214H764ZM766 159V155.679H764V159H766ZM766 149.036V142.393H764V149.036H766ZM766 135.75V129.107H764V135.75H766ZM766 122.464V115.821H764V122.464H766ZM766 109.179V102.536H764V109.179H766ZM766 95.8929V89.25H764V95.8929H766ZM766 82.6071V75.9643H764V82.6071H766ZM766 69.3214V66H764V69.3214H766Z" fill="#DBDDDE"/>
</svg>
