<svg width="1441" height="2" viewBox="0 0 1441 2" fill="none" xmlns="http://www.w3.org/2000/svg">
<path d="M1440 2C1440.55 2 1441 1.55228 1441 1C1441 0.447715 1440.55 0 1440 0V2ZM3.49515 2C4.04743 2 4.49515 1.55228 4.49515 1C4.49515 0.447715 4.04743 0 3.49515 0V2ZM10.4854 0C9.93315 0 9.48544 0.447715 9.48544 1C9.48544 1.55228 9.93315 2 10.4854 2V0ZM17.4757 2C18.028 2 18.4757 1.55228 18.4757 1C18.4757 0.447715 18.028 0 17.4757 0V2ZM24.466 0C23.9137 0 23.466 0.447715 23.466 1C23.466 1.55228 23.9137 2 24.466 2V0ZM31.4563 2C32.0086 2 32.4563 1.55228 32.4563 1C32.4563 0.447715 32.0086 0 31.4563 0V2ZM38.4466 0C37.8943 0 37.4466 0.447715 37.4466 1C37.4466 1.55228 37.8943 2 38.4466 2V0ZM45.4369 2C45.9892 2 46.4369 1.55228 46.4369 1C46.4369 0.447715 45.9892 0 45.4369 0V2ZM52.4272 0C51.8749 0 51.4272 0.447715 51.4272 1C51.4272 1.55228 51.8749 2 52.4272 2V0ZM59.4175 2C59.9698 2 60.4175 1.55228 60.4175 1C60.4175 0.447715 59.9698 0 59.4175 0V2ZM66.4078 0C65.8555 0 65.4078 0.447715 65.4078 1C65.4078 1.55228 65.8555 2 66.4078 2V0ZM73.3981 2C73.9503 2 74.3981 1.55228 74.3981 1C74.3981 0.447715 73.9503 0 73.3981 0V2ZM80.3883 0C79.8361 0 79.3883 0.447715 79.3883 1C79.3883 1.55228 79.8361 2 80.3883 2V0ZM87.3786 2C87.9309 2 88.3786 1.55228 88.3786 1C88.3786 0.447715 87.9309 0 87.3786 0V2ZM94.3689 0C93.8166 0 93.3689 0.447715 93.3689 1C93.3689 1.55228 93.8166 2 94.3689 2V0ZM101.359 2C101.911 2 102.359 1.55228 102.359 1C102.359 0.447715 101.911 0 101.359 0V2ZM108.349 0C107.797 0 107.349 0.447715 107.349 1C107.349 1.55228 107.797 2 108.349 2V0ZM115.34 2C115.892 2 116.34 1.55228 116.34 1C116.34 0.447715 115.892 0 115.34 0V2ZM122.33 0C121.778 0 121.33 0.447715 121.33 1C121.33 1.55228 121.778 2 122.33 2V0ZM129.32 2C129.873 2 130.32 1.55228 130.32 1C130.32 0.447715 129.873 0 129.32 0V2ZM136.311 0C135.758 0 135.311 0.447715 135.311 1C135.311 1.55228 135.758 2 136.311 2V0ZM143.301 2C143.853 2 144.301 1.55228 144.301 1C144.301 0.447715 143.853 0 143.301 0V2ZM150.291 0C149.739 0 149.291 0.447715 149.291 1C149.291 1.55228 149.739 2 150.291 2V0ZM157.282 2C157.834 2 158.282 1.55228 158.282 1C158.282 0.447715 157.834 0 157.282 0V2ZM164.272 0C163.72 0 163.272 0.447715 163.272 1C163.272 1.55228 163.72 2 164.272 2V0ZM171.262 2C171.814 2 172.262 1.55228 172.262 1C172.262 0.447715 171.814 0 171.262 0V2ZM178.252 0C177.7 0 177.252 0.447715 177.252 1C177.252 1.55228 177.7 2 178.252 2V0ZM185.243 2C185.795 2 186.243 1.55228 186.243 1C186.243 0.447715 185.795 0 185.243 0V2ZM192.233 0C191.681 0 191.233 0.447715 191.233 1C191.233 1.55228 191.681 2 192.233 2V0ZM199.223 2C199.776 2 200.223 1.55228 200.223 1C200.223 0.447715 199.776 0 199.223 0V2ZM206.214 0C205.661 0 205.214 0.447715 205.214 1C205.214 1.55228 205.661 2 206.214 2V0ZM213.204 2C213.756 2 214.204 1.55228 214.204 1C214.204 0.447715 213.756 0 213.204 0V2ZM220.194 0C219.642 0 219.194 0.447715 219.194 1C219.194 1.55228 219.642 2 220.194 2V0ZM227.184 2C227.737 2 228.184 1.55228 228.184 1C228.184 0.447715 227.737 0 227.184 0V2ZM234.175 0C233.622 0 233.175 0.447715 233.175 1C233.175 1.55228 233.622 2 234.175 2V0ZM241.165 2C241.717 2 242.165 1.55228 242.165 1C242.165 0.447715 241.717 0 241.165 0V2ZM248.155 0C247.603 0 247.155 0.447715 247.155 1C247.155 1.55228 247.603 2 248.155 2V0ZM255.146 2C255.698 2 256.146 1.55228 256.146 1C256.146 0.447715 255.698 0 255.146 0V2ZM262.136 0C261.584 0 261.136 0.447715 261.136 1C261.136 1.55228 261.584 2 262.136 2V0ZM269.126 2C269.679 2 270.126 1.55228 270.126 1C270.126 0.447715 269.679 0 269.126 0V2ZM276.117 0C275.564 0 275.117 0.447715 275.117 1C275.117 1.55228 275.564 2 276.117 2V0ZM283.107 2C283.659 2 284.107 1.55228 284.107 1C284.107 0.447715 283.659 0 283.107 0V2ZM290.097 0C289.545 0 289.097 0.447715 289.097 1C289.097 1.55228 289.545 2 290.097 2V0ZM297.087 2C297.64 2 298.087 1.55228 298.087 1C298.087 0.447715 297.64 0 297.087 0V2ZM304.078 0C303.525 0 303.078 0.447715 303.078 1C303.078 1.55228 303.525 2 304.078 2V0ZM311.068 2C311.62 2 312.068 1.55228 312.068 1C312.068 0.447715 311.62 0 311.068 0V2ZM318.058 0C317.506 0 317.058 0.447715 317.058 1C317.058 1.55228 317.506 2 318.058 2V0ZM325.049 2C325.601 2 326.049 1.55228 326.049 1C326.049 0.447715 325.601 0 325.049 0V2ZM332.039 0C331.487 0 331.039 0.447715 331.039 1C331.039 1.55228 331.487 2 332.039 2V0ZM339.029 2C339.581 2 340.029 1.55228 340.029 1C340.029 0.447715 339.581 0 339.029 0V2ZM346.02 0C345.467 0 345.02 0.447715 345.02 1C345.02 1.55228 345.467 2 346.02 2V0ZM353.01 2C353.562 2 354.01 1.55228 354.01 1C354.01 0.447715 353.562 0 353.01 0V2ZM360 0C359.448 0 359 0.447715 359 1C359 1.55228 359.448 2 360 2V0ZM366.99 2C367.543 2 367.99 1.55228 367.99 1C367.99 0.447715 367.543 0 366.99 0V2ZM373.981 0C373.428 0 372.981 0.447715 372.981 1C372.981 1.55228 373.428 2 373.981 2V0ZM380.971 2C381.523 2 381.971 1.55228 381.971 1C381.971 0.447715 381.523 0 380.971 0V2ZM387.961 0C387.409 0 386.961 0.447715 386.961 1C386.961 1.55228 387.409 2 387.961 2V0ZM394.952 2C395.504 2 395.952 1.55228 395.952 1C395.952 0.447715 395.504 0 394.952 0V2ZM401.942 0C401.39 0 400.942 0.447715 400.942 1C400.942 1.55228 401.39 2 401.942 2V0ZM408.932 2C409.484 2 409.932 1.55228 409.932 1C409.932 0.447715 409.484 0 408.932 0V2ZM415.922 0C415.37 0 414.922 0.447715 414.922 1C414.922 1.55228 415.37 2 415.922 2V0ZM422.913 2C423.465 2 423.913 1.55228 423.913 1C423.913 0.447715 423.465 0 422.913 0V2ZM429.903 0C429.351 0 428.903 0.447715 428.903 1C428.903 1.55228 429.351 2 429.903 2V0ZM436.893 2C437.446 2 437.893 1.55228 437.893 1C437.893 0.447715 437.446 0 436.893 0V2ZM443.884 0C443.331 0 442.884 0.447715 442.884 1C442.884 1.55228 443.331 2 443.884 2V0ZM450.874 2C451.426 2 451.874 1.55228 451.874 1C451.874 0.447715 451.426 0 450.874 0V2ZM457.864 0C457.312 0 456.864 0.447715 456.864 1C456.864 1.55228 457.312 2 457.864 2V0ZM464.854 2C465.407 2 465.854 1.55228 465.854 1C465.854 0.447715 465.407 0 464.854 0V2ZM471.845 0C471.293 0 470.845 0.447715 470.845 1C470.845 1.55228 471.293 2 471.845 2V0ZM478.835 2C479.387 2 479.835 1.55228 479.835 1C479.835 0.447715 479.387 0 478.835 0V2ZM485.825 0C485.273 0 484.825 0.447715 484.825 1C484.825 1.55228 485.273 2 485.825 2V0ZM492.816 2C493.368 2 493.816 1.55228 493.816 1C493.816 0.447715 493.368 0 492.816 0V2ZM499.806 0C499.254 0 498.806 0.447715 498.806 1C498.806 1.55228 499.254 2 499.806 2V0ZM506.796 2C507.349 2 507.796 1.55228 507.796 1C507.796 0.447715 507.349 0 506.796 0V2ZM513.787 0C513.234 0 512.787 0.447715 512.787 1C512.787 1.55228 513.234 2 513.787 2V0ZM520.777 2C521.329 2 521.777 1.55228 521.777 1C521.777 0.447715 521.329 0 520.777 0V2ZM527.767 0C527.215 0 526.767 0.447715 526.767 1C526.767 1.55228 527.215 2 527.767 2V0ZM534.757 2C535.31 2 535.757 1.55228 535.757 1C535.757 0.447715 535.31 0 534.757 0V2ZM541.748 0C541.195 0 540.748 0.447715 540.748 1C540.748 1.55228 541.195 2 541.748 2V0ZM548.738 2C549.29 2 549.738 1.55228 549.738 1C549.738 0.447715 549.29 0 548.738 0V2ZM555.728 0C555.176 0 554.728 0.447715 554.728 1C554.728 1.55228 555.176 2 555.728 2V0ZM562.719 2C563.271 2 563.719 1.55228 563.719 1C563.719 0.447715 563.271 0 562.719 0V2ZM569.709 0C569.157 0 568.709 0.447715 568.709 1C568.709 1.55228 569.157 2 569.709 2V0ZM576.699 2C577.252 2 577.699 1.55228 577.699 1C577.699 0.447715 577.252 0 576.699 0V2ZM583.69 0C583.137 0 582.69 0.447715 582.69 1C582.69 1.55228 583.137 2 583.69 2V0ZM590.68 2C591.232 2 591.68 1.55228 591.68 1C591.68 0.447715 591.232 0 590.68 0V2ZM597.67 0C597.118 0 596.67 0.447715 596.67 1C596.67 1.55228 597.118 2 597.67 2V0ZM604.66 2C605.213 2 605.66 1.55228 605.66 1C605.66 0.447715 605.213 0 604.66 0V2ZM611.651 0C611.098 0 610.651 0.447715 610.651 1C610.651 1.55228 611.098 2 611.651 2V0ZM618.641 2C619.193 2 619.641 1.55228 619.641 1C619.641 0.447715 619.193 0 618.641 0V2ZM625.631 0C625.079 0 624.631 0.447715 624.631 1C624.631 1.55228 625.079 2 625.631 2V0ZM632.622 2C633.174 2 633.622 1.55228 633.622 1C633.622 0.447715 633.174 0 632.622 0V2ZM639.612 0C639.06 0 638.612 0.447715 638.612 1C638.612 1.55228 639.06 2 639.612 2V0ZM646.602 2C647.154 2 647.602 1.55228 647.602 1C647.602 0.447715 647.154 0 646.602 0V2ZM653.592 0C653.04 0 652.592 0.447715 652.592 1C652.592 1.55228 653.04 2 653.592 2V0ZM660.583 2C661.135 2 661.583 1.55228 661.583 1C661.583 0.447715 661.135 0 660.583 0V2ZM667.573 0C667.021 0 666.573 0.447715 666.573 1C666.573 1.55228 667.021 2 667.573 2V0ZM674.563 2C675.116 2 675.563 1.55228 675.563 1C675.563 0.447715 675.116 0 674.563 0V2ZM681.554 0C681.001 0 680.554 0.447715 680.554 1C680.554 1.55228 681.001 2 681.554 2V0ZM688.544 2C689.096 2 689.544 1.55228 689.544 1C689.544 0.447715 689.096 0 688.544 0V2ZM695.534 0C694.982 0 694.534 0.447715 694.534 1C694.534 1.55228 694.982 2 695.534 2V0ZM702.525 2C703.077 2 703.525 1.55228 703.525 1C703.525 0.447715 703.077 0 702.525 0V2ZM709.515 0C708.963 0 708.515 0.447715 708.515 1C708.515 1.55228 708.963 2 709.515 2V0ZM716.505 2C717.057 2 717.505 1.55228 717.505 1C717.505 0.447715 717.057 0 716.505 0V2ZM723.495 0C722.943 0 722.495 0.447715 722.495 1C722.495 1.55228 722.943 2 723.495 2V0ZM730.486 2C731.038 2 731.486 1.55228 731.486 1C731.486 0.447715 731.038 0 730.486 0V2ZM737.476 0C736.924 0 736.476 0.447715 736.476 1C736.476 1.55228 736.924 2 737.476 2V0ZM744.466 2C745.019 2 745.466 1.55228 745.466 1C745.466 0.447715 745.019 0 744.466 0V2ZM751.457 0C750.904 0 750.457 0.447715 750.457 1C750.457 1.55228 750.904 2 751.457 2V0ZM758.447 2C758.999 2 759.447 1.55228 759.447 1C759.447 0.447715 758.999 0 758.447 0V2ZM765.437 0C764.885 0 764.437 0.447715 764.437 1C764.437 1.55228 764.885 2 765.437 2V0ZM772.427 2C772.98 2 773.427 1.55228 773.427 1C773.427 0.447715 772.98 0 772.427 0V2ZM779.418 0C778.865 0 778.418 0.447715 778.418 1C778.418 1.55228 778.865 2 779.418 2V0ZM786.408 2C786.96 2 787.408 1.55228 787.408 1C787.408 0.447715 786.96 0 786.408 0V2ZM793.398 0C792.846 0 792.398 0.447715 792.398 1C792.398 1.55228 792.846 2 793.398 2V0ZM800.389 2C800.941 2 801.389 1.55228 801.389 1C801.389 0.447715 800.941 0 800.389 0V2ZM807.379 0C806.827 0 806.379 0.447715 806.379 1C806.379 1.55228 806.827 2 807.379 2V0ZM814.369 2C814.922 2 815.369 1.55228 815.369 1C815.369 0.447715 814.922 0 814.369 0V2ZM821.359 0C820.807 0 820.359 0.447715 820.359 1C820.359 1.55228 820.807 2 821.359 2V0ZM828.35 2C828.902 2 829.35 1.55228 829.35 1C829.35 0.447715 828.902 0 828.35 0V2ZM835.34 0C834.788 0 834.34 0.447715 834.34 1C834.34 1.55228 834.788 2 835.34 2V0ZM842.33 2C842.883 2 843.33 1.55228 843.33 1C843.33 0.447715 842.883 0 842.33 0V2ZM849.321 0C848.768 0 848.321 0.447715 848.321 1C848.321 1.55228 848.768 2 849.321 2V0ZM856.311 2C856.863 2 857.311 1.55228 857.311 1C857.311 0.447715 856.863 0 856.311 0V2ZM863.301 0C862.749 0 862.301 0.447715 862.301 1C862.301 1.55228 862.749 2 863.301 2V0ZM870.292 2C870.844 2 871.292 1.55228 871.292 1C871.292 0.447715 870.844 0 870.292 0V2ZM877.282 0C876.73 0 876.282 0.447715 876.282 1C876.282 1.55228 876.73 2 877.282 2V0ZM884.272 2C884.824 2 885.272 1.55228 885.272 1C885.272 0.447715 884.824 0 884.272 0V2ZM891.263 0C890.71 0 890.263 0.447715 890.263 1C890.263 1.55228 890.71 2 891.263 2V0ZM898.253 2C898.805 2 899.253 1.55228 899.253 1C899.253 0.447715 898.805 0 898.253 0V2ZM905.243 0C904.691 0 904.243 0.447715 904.243 1C904.243 1.55228 904.691 2 905.243 2V0ZM912.233 2C912.786 2 913.233 1.55228 913.233 1C913.233 0.447715 912.786 0 912.233 0V2ZM919.224 0C918.671 0 918.224 0.447715 918.224 1C918.224 1.55228 918.671 2 919.224 2V0ZM926.214 2C926.766 2 927.214 1.55228 927.214 1C927.214 0.447715 926.766 0 926.214 0V2ZM933.204 0C932.652 0 932.204 0.447715 932.204 1C932.204 1.55228 932.652 2 933.204 2V0ZM940.195 2C940.747 2 941.195 1.55228 941.195 1C941.195 0.447715 940.747 0 940.195 0V2ZM947.185 0C946.633 0 946.185 0.447715 946.185 1C946.185 1.55228 946.633 2 947.185 2V0ZM954.175 2C954.727 2 955.175 1.55228 955.175 1C955.175 0.447715 954.727 0 954.175 0V2ZM961.165 0C960.613 0 960.165 0.447715 960.165 1C960.165 1.55228 960.613 2 961.165 2V0ZM968.156 2C968.708 2 969.156 1.55228 969.156 1C969.156 0.447715 968.708 0 968.156 0V2ZM975.146 0C974.594 0 974.146 0.447715 974.146 1C974.146 1.55228 974.594 2 975.146 2V0ZM982.136 2C982.689 2 983.136 1.55228 983.136 1C983.136 0.447715 982.689 0 982.136 0V2ZM989.127 0C988.574 0 988.127 0.447715 988.127 1C988.127 1.55228 988.574 2 989.127 2V0ZM996.117 2C996.669 2 997.117 1.55228 997.117 1C997.117 0.447715 996.669 0 996.117 0V2ZM1003.11 0C1002.55 0 1002.11 0.447715 1002.11 1C1002.11 1.55228 1002.55 2 1003.11 2V0ZM1010.1 2C1010.65 2 1011.1 1.55228 1011.1 1C1011.1 0.447715 1010.65 0 1010.1 0V2ZM1017.09 0C1016.54 0 1016.09 0.447715 1016.09 1C1016.09 1.55228 1016.54 2 1017.09 2V0ZM1024.08 2C1024.63 2 1025.08 1.55228 1025.08 1C1025.08 0.447715 1024.63 0 1024.08 0V2ZM1031.07 0C1030.52 0 1030.07 0.447715 1030.07 1C1030.07 1.55228 1030.52 2 1031.07 2V0ZM1038.06 2C1038.61 2 1039.06 1.55228 1039.06 1C1039.06 0.447715 1038.61 0 1038.06 0V2ZM1045.05 0C1044.5 0 1044.05 0.447715 1044.05 1C1044.05 1.55228 1044.5 2 1045.05 2V0ZM1052.04 2C1052.59 2 1053.04 1.55228 1053.04 1C1053.04 0.447715 1052.59 0 1052.04 0V2ZM1059.03 0C1058.48 0 1058.03 0.447715 1058.03 1C1058.03 1.55228 1058.48 2 1059.03 2V0ZM1066.02 2C1066.57 2 1067.02 1.55228 1067.02 1C1067.02 0.447715 1066.57 0 1066.02 0V2ZM1073.01 0C1072.46 0 1072.01 0.447715 1072.01 1C1072.01 1.55228 1072.46 2 1073.01 2V0ZM1080 2C1080.55 2 1081 1.55228 1081 1C1081 0.447715 1080.55 0 1080 0V2ZM1086.99 0C1086.44 0 1085.99 0.447715 1085.99 1C1085.99 1.55228 1086.44 2 1086.99 2V0ZM1093.98 2C1094.53 2 1094.98 1.55228 1094.98 1C1094.98 0.447715 1094.53 0 1093.98 0V2ZM1100.97 0C1100.42 0 1099.97 0.447715 1099.97 1C1099.97 1.55228 1100.42 2 1100.97 2V0ZM1107.96 2C1108.51 2 1108.96 1.55228 1108.96 1C1108.96 0.447715 1108.51 0 1107.96 0V2ZM1114.95 0C1114.4 0 1113.95 0.447715 1113.95 1C1113.95 1.55228 1114.4 2 1114.95 2V0ZM1121.94 2C1122.49 2 1122.94 1.55228 1122.94 1C1122.94 0.447715 1122.49 0 1121.94 0V2ZM1128.93 0C1128.38 0 1127.93 0.447715 1127.93 1C1127.93 1.55228 1128.38 2 1128.93 2V0ZM1135.92 2C1136.47 2 1136.92 1.55228 1136.92 1C1136.92 0.447715 1136.47 0 1135.92 0V2ZM1142.91 0C1142.36 0 1141.91 0.447715 1141.91 1C1141.91 1.55228 1142.36 2 1142.91 2V0ZM1149.9 2C1150.45 2 1150.9 1.55228 1150.9 1C1150.9 0.447715 1150.45 0 1149.9 0V2ZM1156.89 0C1156.34 0 1155.89 0.447715 1155.89 1C1155.89 1.55228 1156.34 2 1156.89 2V0ZM1163.88 2C1164.44 2 1164.88 1.55228 1164.88 1C1164.88 0.447715 1164.44 0 1163.88 0V2ZM1170.87 0C1170.32 0 1169.87 0.447715 1169.87 1C1169.87 1.55228 1170.32 2 1170.87 2V0ZM1177.86 2C1178.42 2 1178.86 1.55228 1178.86 1C1178.86 0.447715 1178.42 0 1177.86 0V2ZM1184.85 0C1184.3 0 1183.85 0.447715 1183.85 1C1183.85 1.55228 1184.3 2 1184.85 2V0ZM1191.84 2C1192.4 2 1192.84 1.55228 1192.84 1C1192.84 0.447715 1192.4 0 1191.84 0V2ZM1198.83 0C1198.28 0 1197.83 0.447715 1197.83 1C1197.83 1.55228 1198.28 2 1198.83 2V0ZM1205.82 2C1206.38 2 1206.82 1.55228 1206.82 1C1206.82 0.447715 1206.38 0 1205.82 0V2ZM1212.81 0C1212.26 0 1211.81 0.447715 1211.81 1C1211.81 1.55228 1212.26 2 1212.81 2V0ZM1219.8 2C1220.36 2 1220.8 1.55228 1220.8 1C1220.8 0.447715 1220.36 0 1219.8 0V2ZM1226.79 0C1226.24 0 1225.79 0.447715 1225.79 1C1225.79 1.55228 1226.24 2 1226.79 2V0ZM1233.79 2C1234.34 2 1234.79 1.55228 1234.79 1C1234.79 0.447715 1234.34 0 1233.79 0V2ZM1240.78 0C1240.22 0 1239.78 0.447715 1239.78 1C1239.78 1.55228 1240.22 2 1240.78 2V0ZM1247.77 2C1248.32 2 1248.77 1.55228 1248.77 1C1248.77 0.447715 1248.32 0 1247.77 0V2ZM1254.76 0C1254.2 0 1253.76 0.447715 1253.76 1C1253.76 1.55228 1254.2 2 1254.76 2V0ZM1261.75 2C1262.3 2 1262.75 1.55228 1262.75 1C1262.75 0.447715 1262.3 0 1261.75 0V2ZM1268.74 0C1268.18 0 1267.74 0.447715 1267.74 1C1267.74 1.55228 1268.18 2 1268.74 2V0ZM1275.73 2C1276.28 2 1276.73 1.55228 1276.73 1C1276.73 0.447715 1276.28 0 1275.73 0V2ZM1282.72 0C1282.16 0 1281.72 0.447715 1281.72 1C1281.72 1.55228 1282.16 2 1282.72 2V0ZM1289.71 2C1290.26 2 1290.71 1.55228 1290.71 1C1290.71 0.447715 1290.26 0 1289.71 0V2ZM1296.7 0C1296.14 0 1295.7 0.447715 1295.7 1C1295.7 1.55228 1296.14 2 1296.7 2V0ZM1303.69 2C1304.24 2 1304.69 1.55228 1304.69 1C1304.69 0.447715 1304.24 0 1303.69 0V2ZM1310.68 0C1310.13 0 1309.68 0.447715 1309.68 1C1309.68 1.55228 1310.13 2 1310.68 2V0ZM1317.67 2C1318.22 2 1318.67 1.55228 1318.67 1C1318.67 0.447715 1318.22 0 1317.67 0V2ZM1324.66 0C1324.11 0 1323.66 0.447715 1323.66 1C1323.66 1.55228 1324.11 2 1324.66 2V0ZM1331.65 2C1332.2 2 1332.65 1.55228 1332.65 1C1332.65 0.447715 1332.2 0 1331.65 0V2ZM1338.64 0C1338.09 0 1337.64 0.447715 1337.64 1C1337.64 1.55228 1338.09 2 1338.64 2V0ZM1345.63 2C1346.18 2 1346.63 1.55228 1346.63 1C1346.63 0.447715 1346.18 0 1345.63 0V2ZM1352.62 0C1352.07 0 1351.62 0.447715 1351.62 1C1351.62 1.55228 1352.07 2 1352.62 2V0ZM1359.61 2C1360.16 2 1360.61 1.55228 1360.61 1C1360.61 0.447715 1360.16 0 1359.61 0V2ZM1366.6 0C1366.05 0 1365.6 0.447715 1365.6 1C1365.6 1.55228 1366.05 2 1366.6 2V0ZM1373.59 2C1374.14 2 1374.59 1.55228 1374.59 1C1374.59 0.447715 1374.14 0 1373.59 0V2ZM1380.58 0C1380.03 0 1379.58 0.447715 1379.58 1C1379.58 1.55228 1380.03 2 1380.58 2V0ZM1387.57 2C1388.12 2 1388.57 1.55228 1388.57 1C1388.57 0.447715 1388.12 0 1387.57 0V2ZM1394.56 0C1394.01 0 1393.56 0.447715 1393.56 1C1393.56 1.55228 1394.01 2 1394.56 2V0ZM1401.55 2C1402.1 2 1402.55 1.55228 1402.55 1C1402.55 0.447715 1402.1 0 1401.55 0V2ZM1408.54 0C1407.99 0 1407.54 0.447715 1407.54 1C1407.54 1.55228 1407.99 2 1408.54 2V0ZM1415.53 2C1416.08 2 1416.53 1.55228 1416.53 1C1416.53 0.447715 1416.08 0 1415.53 0V2ZM1422.52 0C1421.97 0 1421.52 0.447715 1421.52 1C1421.52 1.55228 1421.97 2 1422.52 2V0ZM1429.51 2C1430.06 2 1430.51 1.55228 1430.51 1C1430.51 0.447715 1430.06 0 1429.51 0V2ZM1436.5 0C1435.95 0 1435.5 0.447715 1435.5 1C1435.5 1.55228 1435.95 2 1436.5 2V0ZM0 2L3.49515 2V0L0 0L0 2ZM10.4854 2L17.4757 2V0L10.4854 0V2ZM24.466 2L31.4563 2V0L24.466 0V2ZM38.4466 2L45.4369 2V0L38.4466 0V2ZM52.4272 2L59.4175 2V0L52.4272 0V2ZM66.4078 2L73.3981 2V0L66.4078 0V2ZM80.3883 2L87.3786 2V0L80.3883 0V2ZM94.3689 2L101.359 2V0L94.3689 0V2ZM108.349 2L115.34 2V0L108.349 0V2ZM122.33 2L129.32 2V0L122.33 0V2ZM136.311 2L143.301 2V0L136.311 0V2ZM150.291 2L157.282 2V0L150.291 0V2ZM164.272 2L171.262 2V0L164.272 0V2ZM178.252 2L185.243 2V0L178.252 0V2ZM192.233 2L199.223 2V0L192.233 0V2ZM206.214 2L213.204 2V0L206.214 0V2ZM220.194 2L227.184 2V0L220.194 0V2ZM234.175 2L241.165 2V0L234.175 0V2ZM248.155 2L255.146 2V0L248.155 0V2ZM262.136 2L269.126 2V0L262.136 0V2ZM276.117 2L283.107 2V0L276.117 0V2ZM290.097 2L297.087 2V0L290.097 0V2ZM304.078 2L311.068 2V0L304.078 0V2ZM318.058 2L325.049 2V0L318.058 0V2ZM332.039 2L339.029 2V0L332.039 0V2ZM346.02 2L353.01 2V0L346.02 0V2ZM360 2L366.99 2V0L360 0V2ZM373.981 2L380.971 2V0L373.981 0V2ZM387.961 2L394.952 2V0L387.961 0V2ZM401.942 2L408.932 2V0L401.942 0V2ZM415.922 2L422.913 2V0L415.922 0V2ZM429.903 2L436.893 2V0L429.903 0V2ZM443.884 2L450.874 2V0L443.884 0V2ZM457.864 2L464.854 2V0L457.864 0V2ZM471.845 2L478.835 2V0L471.845 0V2ZM485.825 2L492.816 2V0L485.825 0V2ZM499.806 2L506.796 2V0L499.806 0V2ZM513.787 2L520.777 2V0L513.787 0V2ZM527.767 2L534.757 2V0L527.767 0V2ZM541.748 2L548.738 2V0L541.748 0V2ZM555.728 2L562.719 2V0L555.728 0V2ZM569.709 2L576.699 2V0L569.709 0V2ZM583.69 2L590.68 2V0L583.69 0V2ZM597.67 2L604.66 2V0L597.67 0V2ZM611.651 2L618.641 2V0L611.651 0V2ZM625.631 2L632.622 2V0L625.631 0V2ZM639.612 2L646.602 2V0L639.612 0V2ZM653.592 2L660.583 2V0L653.592 0V2ZM667.573 2L674.563 2V0L667.573 0V2ZM681.554 2L688.544 2V0L681.554 0V2ZM695.534 2L702.525 2V0L695.534 0V2ZM709.515 2L716.505 2V0L709.515 0V2ZM723.495 2L730.486 2V0L723.495 0V2ZM737.476 2L744.466 2V0L737.476 0V2ZM751.457 2L758.447 2V0L751.457 0V2ZM765.437 2L772.427 2V0L765.437 0V2ZM779.418 2L786.408 2V0L779.418 0V2ZM793.398 2L800.389 2V0L793.398 0V2ZM807.379 2L814.369 2V0L807.379 0V2ZM821.359 2L828.35 2V0L821.359 0V2ZM835.34 2L842.33 2V0L835.34 0V2ZM849.321 2L856.311 2V0L849.321 0V2ZM863.301 2L870.292 2V0L863.301 0V2ZM877.282 2L884.272 2V0L877.282 0V2ZM891.263 2L898.253 2V0L891.263 0V2ZM905.243 2L912.233 2V0L905.243 0V2ZM919.224 2L926.214 2V0L919.224 0V2ZM933.204 2L940.195 2V0L933.204 0V2ZM947.185 2L954.175 2V0L947.185 0V2ZM961.165 2L968.156 2V0L961.165 0V2ZM975.146 2L982.136 2V0L975.146 0V2ZM989.127 2L996.117 2V0L989.127 0V2ZM1003.11 2L1010.1 2V0L1003.11 0V2ZM1017.09 2L1024.08 2V0L1017.09 0V2ZM1031.07 2L1038.06 2V0L1031.07 0V2ZM1045.05 2L1052.04 2V0L1045.05 0V2ZM1059.03 2L1066.02 2V0L1059.03 0V2ZM1073.01 2L1080 2V0L1073.01 0V2ZM1086.99 2L1093.98 2V0L1086.99 0V2ZM1100.97 2L1107.96 2V0L1100.97 0V2ZM1114.95 2L1121.94 2V0L1114.95 0V2ZM1128.93 2L1135.92 2V0L1128.93 0V2ZM1142.91 2L1149.9 2V0L1142.91 0V2ZM1156.89 2L1163.88 2V0L1156.89 0V2ZM1170.87 2L1177.86 2V0L1170.87 0V2ZM1184.85 2L1191.84 2V0L1184.85 0V2ZM1198.83 2L1205.82 2V0L1198.83 0V2ZM1212.81 2L1219.8 2V0L1212.81 0V2ZM1226.79 2L1233.79 2V0L1226.79 0V2ZM1240.78 2L1247.77 2V0L1240.78 0V2ZM1254.76 2L1261.75 2V0L1254.76 0V2ZM1268.74 2L1275.73 2V0L1268.74 0V2ZM1282.72 2L1289.71 2V0L1282.72 0V2ZM1296.7 2L1303.69 2V0L1296.7 0V2ZM1310.68 2L1317.67 2V0L1310.68 0V2ZM1324.66 2L1331.65 2V0L1324.66 0V2ZM1338.64 2L1345.63 2V0L1338.64 0V2ZM1352.62 2L1359.61 2V0L1352.62 0V2ZM1366.6 2L1373.59 2V0L1366.6 0V2ZM1380.58 2L1387.57 2V0L1380.58 0V2ZM1394.56 2L1401.55 2V0L1394.56 0V2ZM1408.54 2L1415.53 2V0L1408.54 0V2ZM1422.52 2L1429.51 2V0L1422.52 0V2ZM1436.5 2L1440 2V0L1436.5 0V2Z" fill="#616466"/>
</svg>
