<svg width="325" height="102" viewBox="0 0 325 102" fill="none" xmlns="http://www.w3.org/2000/svg">
<path d="M323 52C323.552 52 324 51.5523 324 51C324 50.4477 323.552 50 323 50V52ZM8.45652 52C9.00881 52 9.45652 51.5523 9.45652 51C9.45652 50.4477 9.00881 50 8.45652 50V52ZM15.3696 50C14.8173 50 14.3696 50.4477 14.3696 51C14.3696 51.5523 14.8173 52 15.3696 52V50ZM22.2826 52C22.8349 52 23.2826 51.5523 23.2826 51C23.2826 50.4477 22.8349 50 22.2826 50V52ZM29.1957 50C28.6434 50 28.1957 50.4477 28.1957 51C28.1957 51.5523 28.6434 52 29.1957 52V50ZM36.1087 52C36.661 52 37.1087 51.5523 37.1087 51C37.1087 50.4477 36.661 50 36.1087 50V52ZM43.0217 50C42.4695 50 42.0217 50.4477 42.0217 51C42.0217 51.5523 42.4695 52 43.0217 52V50ZM49.9348 52C50.4871 52 50.9348 51.5523 50.9348 51C50.9348 50.4477 50.4871 50 49.9348 50V52ZM56.8478 50C56.2955 50 55.8478 50.4477 55.8478 51C55.8478 51.5523 56.2955 52 56.8478 52V50ZM63.7609 52C64.3132 52 64.7609 51.5523 64.7609 51C64.7609 50.4477 64.3132 50 63.7609 50V52ZM70.6739 50C70.1216 50 69.6739 50.4477 69.6739 51C69.6739 51.5523 70.1216 52 70.6739 52V50ZM77.587 52C78.1392 52 78.587 51.5523 78.587 51C78.587 50.4477 78.1392 50 77.587 50V52ZM84.5 50C83.9477 50 83.5 50.4477 83.5 51C83.5 51.5523 83.9477 52 84.5 52V50ZM91.413 52C91.9653 52 92.413 51.5523 92.413 51C92.413 50.4477 91.9653 50 91.413 50V52ZM98.3261 50C97.7738 50 97.3261 50.4477 97.3261 51C97.3261 51.5523 97.7738 52 98.3261 52V50ZM105.239 52C105.791 52 106.239 51.5523 106.239 51C106.239 50.4477 105.791 50 105.239 50V52ZM112.152 50C111.6 50 111.152 50.4477 111.152 51C111.152 51.5523 111.6 52 112.152 52V50ZM119.065 52C119.617 52 120.065 51.5523 120.065 51C120.065 50.4477 119.617 50 119.065 50V52ZM125.978 50C125.426 50 124.978 50.4477 124.978 51C124.978 51.5523 125.426 52 125.978 52V50ZM132.891 52C133.444 52 133.891 51.5523 133.891 51C133.891 50.4477 133.444 50 132.891 50V52ZM139.804 50C139.252 50 138.804 50.4477 138.804 51C138.804 51.5523 139.252 52 139.804 52V50ZM146.717 52C147.27 52 147.717 51.5523 147.717 51C147.717 50.4477 147.27 50 146.717 50V52ZM153.63 50C153.078 50 152.63 50.4477 152.63 51C152.63 51.5523 153.078 52 153.63 52V50ZM160.543 52C161.096 52 161.543 51.5523 161.543 51C161.543 50.4477 161.096 50 160.543 50V52ZM167.456 50C166.904 50 166.456 50.4477 166.456 51C166.456 51.5523 166.904 52 167.456 52V50ZM174.37 52C174.922 52 175.37 51.5523 175.37 51C175.37 50.4477 174.922 50 174.37 50V52ZM181.283 50C180.73 50 180.283 50.4477 180.283 51C180.283 51.5523 180.73 52 181.283 52V50ZM188.196 52C188.748 52 189.196 51.5523 189.196 51C189.196 50.4477 188.748 50 188.196 50V52ZM195.109 50C194.556 50 194.109 50.4477 194.109 51C194.109 51.5523 194.556 52 195.109 52V50ZM202.022 52C202.574 52 203.022 51.5523 203.022 51C203.022 50.4477 202.574 50 202.022 50V52ZM208.935 50C208.382 50 207.935 50.4477 207.935 51C207.935 51.5523 208.382 52 208.935 52V50ZM215.848 52C216.4 52 216.848 51.5523 216.848 51C216.848 50.4477 216.4 50 215.848 50V52ZM222.761 50C222.209 50 221.761 50.4477 221.761 51C221.761 51.5523 222.209 52 222.761 52V50ZM229.674 52C230.226 52 230.674 51.5523 230.674 51C230.674 50.4477 230.226 50 229.674 50V52ZM236.587 50C236.035 50 235.587 50.4477 235.587 51C235.587 51.5523 236.035 52 236.587 52V50ZM243.5 52C244.052 52 244.5 51.5523 244.5 51C244.5 50.4477 244.052 50 243.5 50V52ZM250.413 50C249.861 50 249.413 50.4477 249.413 51C249.413 51.5523 249.861 52 250.413 52V50ZM257.326 52C257.878 52 258.326 51.5523 258.326 51C258.326 50.4477 257.878 50 257.326 50V52ZM264.239 50C263.687 50 263.239 50.4477 263.239 51C263.239 51.5523 263.687 52 264.239 52V50ZM271.152 52C271.704 52 272.152 51.5523 272.152 51C272.152 50.4477 271.704 50 271.152 50V52ZM278.065 50C277.513 50 277.065 50.4477 277.065 51C277.065 51.5523 277.513 52 278.065 52V50ZM284.978 52C285.53 52 285.978 51.5523 285.978 51C285.978 50.4477 285.53 50 284.978 50V52ZM291.891 50C291.339 50 290.891 50.4477 290.891 51C290.891 51.5523 291.339 52 291.891 52V50ZM298.804 52C299.357 52 299.804 51.5523 299.804 51C299.804 50.4477 299.357 50 298.804 50V52ZM305.717 50C305.165 50 304.717 50.4477 304.717 51C304.717 51.5523 305.165 52 305.717 52V50ZM312.63 52C313.183 52 313.63 51.5523 313.63 51C313.63 50.4477 313.183 50 312.63 50V52ZM319.543 50C318.991 50 318.543 50.4477 318.543 51C318.543 51.5523 318.991 52 319.543 52V50ZM5 52H8.45652V50H5V52ZM15.3696 52H22.2826V50H15.3696V52ZM29.1957 52H36.1087V50H29.1957V52ZM43.0217 52H49.9348V50H43.0217V52ZM56.8478 52H63.7609V50H56.8478V52ZM70.6739 52H77.587V50H70.6739V52ZM84.5 52H91.413V50H84.5V52ZM98.3261 52L105.239 52V50L98.3261 50V52ZM112.152 52H119.065V50H112.152V52ZM125.978 52H132.891V50H125.978V52ZM139.804 52H146.717V50H139.804V52ZM153.63 52H160.543V50H153.63V52ZM167.456 52H174.37V50H167.456V52ZM181.283 52H188.196V50H181.283V52ZM195.109 52H202.022V50H195.109V52ZM208.935 52H215.848V50H208.935V52ZM222.761 52L229.674 52V50L222.761 50V52ZM236.587 52H243.5V50H236.587V52ZM250.413 52H257.326V50H250.413V52ZM264.239 52H271.152V50H264.239V52ZM278.065 52H284.978V50H278.065V52ZM291.891 52L298.804 52V50L291.891 50V52ZM305.717 52H312.63V50H305.717V52ZM319.543 52H323V50H319.543V52Z" fill="#DBDDDE"/>
<path d="M323 51C323 51.5523 323.448 52 324 52C324.552 52 325 51.5523 325 51H323ZM325 1C325 0.447716 324.552 0 324 0C323.448 0 323 0.447716 323 1H325ZM325 47.875C325 47.3227 324.552 46.875 324 46.875C323.448 46.875 323 47.3227 323 47.875H325ZM323 41.625C323 42.1773 323.448 42.625 324 42.625C324.552 42.625 325 42.1773 325 41.625H323ZM325 35.375C325 34.8227 324.552 34.375 324 34.375C323.448 34.375 323 34.8227 323 35.375H325ZM323 29.125C323 29.6773 323.448 30.125 324 30.125C324.552 30.125 325 29.6773 325 29.125H323ZM325 22.875C325 22.3227 324.552 21.875 324 21.875C323.448 21.875 323 22.3227 323 22.875H325ZM323 16.625C323 17.1773 323.448 17.625 324 17.625C324.552 17.625 325 17.1773 325 16.625H323ZM325 10.375C325 9.82272 324.552 9.375 324 9.375C323.448 9.375 323 9.82272 323 10.375H325ZM323 4.125C323 4.67728 323.448 5.125 324 5.125C324.552 5.125 325 4.67728 325 4.125H323ZM325 51V47.875H323V51H325ZM325 41.625V35.375H323V41.625H325ZM325 29.125V22.875H323V29.125H325ZM325 16.625V10.375H323V16.625H325ZM325 4.125V1H323V4.125H325Z" fill="#DBDDDE"/>
<path d="M6 101.774L11.7735 96L6 90.2265L0.226497 96L6 101.774ZM7 51C7 50.4477 6.55228 50 6 50C5.44772 50 5 50.4477 5 51H7ZM7 92.25C7 91.6977 6.55228 91.25 6 91.25C5.44772 91.25 5 91.6977 5 92.25H7ZM5 84.75C5 85.3023 5.44772 85.75 6 85.75C6.55228 85.75 7 85.3023 7 84.75H5ZM7 77.25C7 76.6977 6.55228 76.25 6 76.25C5.44772 76.25 5 76.6977 5 77.25H7ZM5 69.75C5 70.3023 5.44772 70.75 6 70.75C6.55228 70.75 7 70.3023 7 69.75H5ZM7 62.25C7 61.6977 6.55228 61.25 6 61.25C5.44772 61.25 5 61.6977 5 62.25H7ZM5 54.75C5 55.3023 5.44772 55.75 6 55.75C6.55228 55.75 7 55.3023 7 54.75H5ZM7 96V92.25H5V96H7ZM7 84.75V77.25H5V84.75H7ZM7 69.75V62.25H5V69.75H7ZM7 54.75V51H5V54.75H7Z" fill="#DBDDDE"/>
</svg>
