<svg width="45" height="45" viewBox="0 0 45 45" fill="none" xmlns="http://www.w3.org/2000/svg">
<rect width="45" height="45" rx="5" fill="white" fill-opacity="0.1"/>
<path d="M18.4769 30H14.3304V16.647H18.4769V30ZM16.4014 14.8256C15.0755 14.8256 14 13.7273 14 12.4014C14 11.7645 14.253 11.1537 14.7034 10.7034C15.1537 10.253 15.7645 10 16.4014 10C17.0383 10 17.6491 10.253 18.0994 10.7034C18.5498 11.1537 18.8028 11.7645 18.8028 12.4014C18.8028 13.7273 17.7269 14.8256 16.4014 14.8256ZM33.996 30H29.8584V23.4999C29.8584 21.9507 29.8271 19.9641 27.7025 19.9641C25.5467 19.9641 25.2163 21.6471 25.2163 23.3882V30H21.0743V16.647H25.0511V18.4685H25.1092C25.6628 17.4194 27.015 16.3122 29.0325 16.3122C33.229 16.3122 34.0004 19.0756 34.0004 22.665V30H33.996Z" fill="#E0E0E0"/>
</svg>
