<svg width="86" height="70" viewBox="0 0 86 70" fill="none" xmlns="http://www.w3.org/2000/svg">
<path d="M21.1554 61.1896V57.7021C21.1759 57.4087 21.1335 57.1144 21.0313 56.8387C20.929 56.5631 20.7691 56.3123 20.5623 56.1033C20.3555 55.8943 20.1065 55.7318 19.8319 55.6266C19.5573 55.5214 19.2635 55.476 18.97 55.4934C18.5858 55.4683 18.202 55.5468 17.8585 55.7206C17.515 55.8944 17.2244 56.1571 17.017 56.4815C16.828 56.1668 16.5576 55.909 16.2344 55.7351C15.9111 55.5612 15.547 55.4777 15.1803 55.4934C14.8606 55.4773 14.5423 55.545 14.2568 55.6898C13.9714 55.8345 13.7287 56.0514 13.5528 56.3187V55.6329H12.3438V61.1896H13.5644V58.1089C13.538 57.9188 13.554 57.7253 13.6113 57.5421C13.6686 57.3589 13.7658 57.1907 13.8958 57.0496C14.0259 56.9085 14.1855 56.7979 14.3634 56.7258C14.5412 56.6537 14.7329 56.6219 14.9245 56.6326C15.7266 56.6326 16.1335 57.1557 16.1335 58.0973V61.1896H17.3541V58.1089C17.3297 57.9192 17.3471 57.7264 17.4052 57.5441C17.4632 57.3618 17.5605 57.1945 17.6901 57.0538C17.8197 56.9131 17.9786 56.8025 18.1555 56.7297C18.3324 56.6569 18.5231 56.6238 18.7142 56.6326C19.5396 56.6326 19.9348 57.1557 19.9348 58.0973V61.1896H21.1554ZM39.2204 55.6329H37.2443V53.9473H36.0236V55.6329H34.896V56.7372H36.0236V59.2715C36.0236 60.5618 36.5235 61.3291 37.9533 61.3291C38.4875 61.3307 39.0113 61.1816 39.4646 60.8989L39.1159 59.8643C38.7917 60.0577 38.4237 60.1657 38.0464 60.1782C37.4418 60.1782 37.2443 59.8061 37.2443 59.2483V56.7372H39.2204V55.6329ZM49.5317 55.4934C49.2369 55.4847 48.9453 55.5557 48.6875 55.6989C48.4297 55.8421 48.2154 56.0522 48.067 56.3071V55.6329H46.8696V61.1896H48.0786V58.074C48.0786 57.1557 48.4738 56.6442 49.2644 56.6442C49.523 56.6407 49.7797 56.6881 50.02 56.7837L50.392 55.6445C50.1159 55.5457 49.825 55.4946 49.5317 55.4934ZM33.9428 56.0746C33.2585 55.6677 32.4716 55.4659 31.6759 55.4934C30.2693 55.4934 29.3626 56.1676 29.3626 57.2719C29.3626 58.1787 30.0368 58.7368 31.2806 58.9111L31.8503 58.9924C32.5129 59.0853 32.8268 59.2598 32.8268 59.5736C32.8268 60.0038 32.385 60.248 31.5597 60.248C30.8958 60.267 30.2447 60.0623 29.7113 59.6666L29.1417 60.6083C29.8459 61.1001 30.6894 61.3528 31.548 61.3291C33.1523 61.3291 34.0822 60.5734 34.0822 59.5156C34.0822 58.539 33.3499 58.0275 32.1409 57.8531L31.5714 57.7718C31.0482 57.7021 30.6297 57.5975 30.6297 57.2255C30.6297 56.8186 31.0248 56.5745 31.6876 56.5745C32.296 56.5837 32.8922 56.7477 33.4197 57.0511L33.9428 56.0746ZM66.3296 55.4934C66.0349 55.4847 65.7432 55.5557 65.4854 55.6989C65.2276 55.8421 65.0133 56.0522 64.8649 56.3071V55.6329H63.6676V61.1896H64.8765V58.074C64.8765 57.1557 65.2718 56.6442 66.0622 56.6442C66.3208 56.6407 66.5776 56.6881 66.8179 56.7837L67.1899 55.6445C66.9138 55.5457 66.6229 55.4946 66.3296 55.4934ZM50.7523 58.4111C50.7362 58.8026 50.8023 59.1931 50.9462 59.5575C51.0901 59.9219 51.3087 60.2521 51.5879 60.527C51.8671 60.8018 52.2008 61.0152 52.5674 61.1533C52.9341 61.2915 53.3255 61.3513 53.7167 61.3291C54.4425 61.3656 55.1557 61.1292 55.7161 60.6664L55.1349 59.6899C54.7169 60.0085 54.2073 60.1838 53.6818 60.1898C53.2287 60.1623 52.8032 59.9629 52.4922 59.6324C52.1811 59.3019 52.0079 58.8651 52.0079 58.4112C52.0079 57.9573 52.1811 57.5205 52.4922 57.19C52.8032 56.8594 53.2287 56.6601 53.6818 56.6326C54.2073 56.6386 54.7169 56.8139 55.1349 57.1325L55.7161 56.156C55.1557 55.6933 54.4425 55.4569 53.7167 55.4934C53.3256 55.4711 52.9341 55.531 52.5675 55.6691C52.2009 55.8073 51.8672 56.0206 51.588 56.2954C51.3088 56.5702 51.0902 56.9004 50.9462 57.2648C50.8023 57.6292 50.7362 58.0196 50.7523 58.4111ZM62.0749 58.4111V55.6329H60.8659V56.3071C60.6596 56.0412 60.3925 55.8285 60.0871 55.687C59.7817 55.5454 59.4469 55.479 59.1106 55.4934C58.3614 55.5301 57.6551 55.8536 57.1379 56.3967C56.6207 56.9399 56.3323 57.6612 56.3323 58.4112C56.3323 59.1613 56.6207 59.8826 57.1379 60.4257C57.6551 60.9689 58.3614 61.2924 59.1106 61.3291C59.4469 61.3434 59.7818 61.2771 60.0871 61.1355C60.3925 60.9939 60.6596 60.7812 60.8659 60.5152V61.1896H62.0749V58.4111ZM57.5761 58.4111C57.5948 58.0832 57.7091 57.768 57.9049 57.5043C58.1007 57.2405 58.3694 57.0399 58.6778 56.9271C58.9862 56.8142 59.321 56.7941 59.6407 56.8692C59.9604 56.9444 60.2512 57.1114 60.4771 57.3498C60.703 57.5882 60.8543 57.8875 60.9121 58.2108C60.97 58.5341 60.932 58.8672 60.8027 59.1692C60.6735 59.4711 60.4588 59.7287 60.185 59.91C59.9111 60.0914 59.5902 60.1886 59.2618 60.1898C59.0316 60.1929 58.8032 60.1483 58.5911 60.0588C58.379 59.9693 58.1877 59.8368 58.0293 59.6696C57.871 59.5025 57.7489 59.3045 57.6709 59.0878C57.5929 58.8712 57.5606 58.6408 57.5761 58.4111ZM42.987 55.4934C42.233 55.5331 41.5237 55.8632 41.0079 56.4145C40.4921 56.9658 40.2099 57.6955 40.2204 58.4504C40.231 59.2053 40.5334 59.9268 41.0644 60.4635C41.5954 61.0002 42.3136 61.3104 43.0683 61.3291C43.8977 61.3582 44.7088 61.0809 45.3468 60.5501L44.7539 59.6551C44.2948 60.023 43.7263 60.2275 43.138 60.2363C42.7386 60.2699 42.3417 60.1467 42.0314 59.8928C41.7211 59.639 41.5218 59.2743 41.4757 58.8761H45.6026C45.6142 58.7251 45.6258 58.5739 45.6258 58.4111C45.6142 56.6791 44.5447 55.4934 42.987 55.4934ZM42.9636 56.5745C43.3288 56.5674 43.6819 56.7053 43.9456 56.9581C44.2092 57.2108 44.362 57.5578 44.3703 57.923H41.4873C41.5085 57.5499 41.6749 57.2 41.9508 56.948C42.2267 56.696 42.5902 56.5619 42.9636 56.5745ZM73.2929 58.4111V53.401H72.0839V56.3071C71.8775 56.0412 71.6105 55.8285 71.3051 55.687C70.9997 55.5454 70.6649 55.479 70.3286 55.4934C69.5794 55.5301 68.8731 55.8535 68.3559 56.3967C67.8387 56.9399 67.5502 57.6612 67.5502 58.4112C67.5502 59.1613 67.8387 59.8826 68.3559 60.4258C68.8731 60.969 69.5794 61.2924 70.3286 61.3291C70.6649 61.3434 70.9997 61.2771 71.3051 61.1355C71.6105 60.9939 71.8775 60.7812 72.0839 60.5152V61.1896H73.2929V58.4111ZM75.3082 60.3843C75.3833 60.3838 75.4577 60.3985 75.5269 60.4276C75.5935 60.4554 75.6541 60.4956 75.7057 60.5461C75.7567 60.5964 75.7976 60.6562 75.826 60.722C75.8551 60.7897 75.8701 60.8626 75.8701 60.9363C75.8701 61.0099 75.8551 61.0828 75.826 61.1505C75.7975 61.2161 75.7566 61.2756 75.7057 61.3258C75.654 61.3763 75.5934 61.4166 75.5269 61.4448C75.4579 61.4744 75.3834 61.4894 75.3082 61.4889C75.1976 61.49 75.0892 61.4585 74.9964 61.3983C74.9036 61.3382 74.8306 61.252 74.7865 61.1505C74.7575 61.0828 74.7425 61.0099 74.7425 60.9363C74.7425 60.8626 74.7575 60.7897 74.7865 60.722C74.8148 60.6563 74.8555 60.5965 74.9063 60.5461C74.9578 60.4952 75.0187 60.455 75.0857 60.4276C75.1562 60.3984 75.2319 60.3837 75.3082 60.3843ZM75.3082 61.3671C75.3655 61.3675 75.4223 61.356 75.4749 61.3332C75.5253 61.3113 75.5712 61.2801 75.6101 61.2412C75.6904 61.1601 75.7354 61.0506 75.7354 60.9365C75.7354 60.8225 75.6904 60.713 75.6101 60.6319C75.5713 60.5931 75.5254 60.5621 75.4749 60.5407C75.4222 60.5183 75.3655 60.507 75.3082 60.5075C75.25 60.507 75.1922 60.5183 75.1384 60.5407C75.0871 60.5618 75.0404 60.5928 75.001 60.6319C74.9207 60.713 74.8757 60.8224 74.8757 60.9365C74.8757 61.0506 74.9207 61.1601 75.001 61.2412C75.0405 61.2804 75.0871 61.3116 75.1384 61.3332C75.1921 61.3559 75.2499 61.3675 75.3082 61.3671ZM75.3407 60.678C75.3951 60.6744 75.449 60.69 75.4931 60.722C75.5107 60.7365 75.5247 60.7549 75.5339 60.7756C75.5432 60.7964 75.5475 60.8191 75.5465 60.8418C75.5471 60.8613 75.5437 60.8807 75.5363 60.8988C75.529 60.9168 75.518 60.9331 75.5039 60.9466C75.4703 60.9765 75.4276 60.9944 75.3827 60.9975L75.5506 61.191H75.4193L75.2637 60.9988H75.2136V61.191H75.1039V60.678H75.3407ZM75.2136 60.7742V60.9109H75.3395C75.3637 60.9121 75.3877 60.9062 75.4085 60.8939C75.417 60.8882 75.4238 60.8804 75.4283 60.8713C75.4328 60.8622 75.4348 60.852 75.4342 60.8418C75.4347 60.8319 75.4327 60.8219 75.4282 60.813C75.4237 60.804 75.4169 60.7965 75.4085 60.791C75.3876 60.7788 75.3636 60.773 75.3395 60.7742H75.2136ZM68.7941 58.4111C68.8129 58.0832 68.9272 57.768 69.123 57.5043C69.3188 57.2406 69.5875 57.04 69.8959 56.9272C70.2043 56.8144 70.539 56.7943 70.8588 56.8694C71.1785 56.9446 71.4692 57.1116 71.6951 57.35C71.921 57.5884 72.0722 57.8877 72.13 58.2109C72.1879 58.5342 72.1498 58.8674 72.0206 59.1693C71.8914 59.4712 71.6766 59.7287 71.4028 59.9101C71.129 60.0914 70.8081 60.1886 70.4797 60.1898C70.2495 60.1929 70.0211 60.1483 69.809 60.0587C69.5969 59.9692 69.4057 59.8367 69.2473 59.6696C69.089 59.5025 68.9669 59.3044 68.8889 59.0878C68.8109 58.8712 68.7787 58.6408 68.7941 58.4111ZM27.9676 58.4111V55.6329H26.7586V56.3071C26.5522 56.0412 26.2852 55.8285 25.9798 55.687C25.6744 55.5454 25.3395 55.479 25.0032 55.4934C24.2541 55.5301 23.5478 55.8536 23.0306 56.3967C22.5134 56.9399 22.2249 57.6612 22.2249 58.4112C22.2249 59.1613 22.5134 59.8826 23.0306 60.4257C23.5478 60.9689 24.2541 61.2924 25.0032 61.3291C25.3395 61.3434 25.6744 61.2771 25.9798 61.1355C26.2852 60.9939 26.5522 60.7812 26.7586 60.5152V61.1896H27.9676V58.4111ZM23.4688 58.4111C23.4876 58.0832 23.6019 57.768 23.7977 57.5043C23.9935 57.2406 24.2622 57.04 24.5706 56.9272C24.879 56.8144 25.2137 56.7943 25.5334 56.8694C25.8532 56.9446 26.1439 57.1116 26.3698 57.35C26.5957 57.5884 26.7469 57.8877 26.8047 58.211C26.8626 58.5342 26.8245 58.8674 26.6953 59.1693C26.5661 59.4712 26.3513 59.7288 26.0775 59.9101C25.8037 60.0914 25.4828 60.1886 25.1544 60.1898C24.9242 60.1929 24.6958 60.1483 24.4837 60.0587C24.2716 59.9692 24.0804 59.8367 23.922 59.6696C23.7637 59.5025 23.6416 59.3044 23.5636 59.0878C23.4856 58.8712 23.4534 58.6408 23.4688 58.4111Z" fill="#231F20"/>
<path d="M51.8292 13.2857H33.5176V46.1923H51.8292V13.2857Z" fill="#FF5F00"/>
<path d="M34.6953 29.7389C34.6924 26.5698 35.4106 23.4415 36.7954 20.5909C38.1802 17.7404 40.1954 15.2422 42.6884 13.2856C39.6012 10.859 35.8935 9.34986 31.9891 8.9308C28.0847 8.51174 24.1412 9.19963 20.6093 10.9158C17.0774 12.6321 14.0996 15.3073 12.0163 18.6359C9.93293 21.9645 8.82812 25.8121 8.82812 29.7389C8.82812 33.6657 9.93293 37.5133 12.0163 40.8419C14.0996 44.1705 17.0774 46.8457 20.6093 48.562C24.1412 50.2782 28.0847 50.9661 31.9891 50.547C35.8935 50.1279 39.6012 48.6188 42.6884 46.1922C40.1954 44.2356 38.1802 41.7374 36.7954 38.8869C35.4106 36.0363 34.6924 32.908 34.6953 29.7389Z" fill="#EB001B"/>
<path d="M76.5311 29.7389C76.5312 33.6656 75.4266 37.5132 73.3434 40.8418C71.2601 44.1704 68.2824 46.8457 64.7506 48.5619C61.2188 50.2781 57.2753 50.966 53.371 50.547C49.4667 50.1279 45.759 48.6188 42.6719 46.1922C45.1627 44.2336 47.1763 41.735 48.5609 38.8849C49.9455 36.0348 50.6649 32.9075 50.6649 29.7389C50.6649 26.5703 49.9455 23.443 48.5609 20.5929C47.1763 17.7428 45.1627 15.2442 42.6719 13.2856C45.759 10.859 49.4667 9.34985 53.371 8.9308C57.2753 8.51174 61.2188 9.19965 64.7506 10.9159C68.2824 12.6321 71.2601 15.3074 73.3434 18.636C75.4266 21.9646 76.5312 25.8121 76.5311 29.7389Z" fill="#F79E1B"/>
<path d="M74.5647 42.7065V42.0328H74.8364V41.8956H74.1445V42.0328H74.4163V42.7065H74.5647ZM75.9078 42.7065V41.8942H75.6958L75.4519 42.4529L75.2079 41.8942H74.9957V42.7065H75.1454V42.0938L75.3742 42.622H75.5295L75.7582 42.0925V42.7065H75.9078Z" fill="#F79E1B"/>
</svg>
