<svg width="20" height="20" viewBox="0 0 20 20" fill="none" xmlns="http://www.w3.org/2000/svg">
<path d="M18.0645 0.967773H1.93548C0.870968 0.967773 0 1.83874 0 2.90326C0 3.96777 0.870968 4.83874 1.93548 4.83874H18.0645C19.129 4.83874 20 3.96777 20 2.90326C20 1.83874 19.129 0.967773 18.0645 0.967773Z" fill="black"/>
<path d="M18.0645 8.06458H1.93548C0.870968 8.06458 0 8.93554 0 10.0001C0 11.0646 0.870968 11.9355 1.93548 11.9355H18.0645C19.129 11.9355 20 11.0646 20 10.0001C20 8.93554 19.129 8.06458 18.0645 8.06458Z" fill="black"/>
<path d="M18.0645 15.1614H1.93548C0.870968 15.1614 0 16.0323 0 17.0969C0 18.1614 0.870968 19.0323 1.93548 19.0323H18.0645C19.129 19.0323 20 18.1614 20 17.0969C20 16.0323 19.129 15.1614 18.0645 15.1614Z" fill="black"/>
</svg>
