<svg width="25" height="25" viewBox="0 0 25 25" fill="none" xmlns="http://www.w3.org/2000/svg">
<g clip-path="url(#clip0_1529_41)">
<path d="M2.77778 3.47217C2.04107 3.47217 1.33453 3.76483 0.813592 4.28576C0.292658 4.80669 0 5.51323 0 6.24995L0 18.7499C0 19.4867 0.292658 20.1932 0.813592 20.7141C1.33453 21.2351 2.04107 21.5277 2.77778 21.5277H8.33333V3.47217H2.77778Z" fill="#009A49"/>
<path d="M8.33301 3.47217H16.6663V21.5277H8.33301V3.47217Z" fill="#EEEEEE"/>
<path d="M22.2225 3.47217H16.667V21.5277H22.2225C22.9593 21.5277 23.6658 21.2351 24.1867 20.7141C24.7077 20.1932 25.0003 19.4867 25.0003 18.7499V6.24995C25.0003 5.51323 24.7077 4.80669 24.1867 4.28576C23.6658 3.76483 22.9593 3.47217 22.2225 3.47217Z" fill="#009A49"/>
</g>
<defs>
<clipPath id="clip0_1529_41">
<rect width="25" height="25" fill="white"/>
</clipPath>
</defs>
</svg>
