<svg width="40" height="40" viewBox="0 0 40 40" fill="none" xmlns="http://www.w3.org/2000/svg">
<g clip-path="url(#clip0_1275_32)">
<path d="M39.5417 18.894C39.5412 18.8935 39.5409 18.893 39.5403 18.8925L31.3759 10.7675C30.7643 10.1588 29.775 10.1611 29.1662 10.7728C28.5574 11.3844 28.5598 12.3737 29.1714 12.9825L34.653 18.4375H1.5625C0.699531 18.4375 0 19.137 0 20C0 20.863 0.699531 21.5625 1.5625 21.5625H34.6529L29.1715 27.0175C28.5598 27.6262 28.5575 28.6155 29.1663 29.2272C29.7751 29.839 30.7645 29.8411 31.376 29.2325L39.5404 21.1075C39.5409 21.107 39.5413 21.1065 39.5418 21.106C40.1538 20.4952 40.1518 19.5027 39.5417 18.894Z" fill="white"/>
</g>
<defs>
<clipPath id="clip0_1275_32">
<rect width="40" height="40" fill="white"/>
</clipPath>
</defs>
</svg>
