<svg width="45" height="45" viewBox="0 0 45 45" fill="none" xmlns="http://www.w3.org/2000/svg">
<g clip-path="url(#clip0_87_2575)">
<path d="M38.4099 6.59008C34.1603 2.34043 28.5099 0 22.5 0C16.4898 0 10.8397 2.34043 6.59008 6.59008C2.34043 10.8397 0 16.4898 0 22.5C0 28.5099 2.34043 34.1603 6.59008 38.4099C10.8397 42.6596 16.4898 45 22.5 45C28.5099 45 34.1603 42.6596 38.4099 38.4099C42.6596 34.1603 45 28.5099 45 22.5C45 16.4898 42.6596 10.8397 38.4099 6.59008ZM11.2799 38.8816C12.2209 33.4633 16.9162 29.4667 22.5 29.4667C28.0841 29.4667 32.7791 33.4633 33.7201 38.8816C30.5255 41.0765 26.6604 42.3633 22.5 42.3633C18.3396 42.3633 14.4745 41.0765 11.2799 38.8816ZM15.3458 19.6758C15.3458 15.7307 18.5552 12.5217 22.5 12.5217C26.4448 12.5217 29.6542 15.731 29.6542 19.6758C29.6542 23.6206 26.4448 26.83 22.5 26.83C18.5552 26.83 15.3458 23.6206 15.3458 19.6758ZM36.0039 37.0528C35.2943 34.5304 33.8849 32.2418 31.9094 30.4541C30.6975 29.3572 29.318 28.4917 27.8349 27.8816C30.5156 26.133 32.2912 23.108 32.2912 19.6758C32.2912 14.2771 27.8988 9.88495 22.5 9.88495C17.1012 9.88495 12.7091 14.2771 12.7091 19.6758C12.7091 23.108 14.4848 26.133 17.1651 27.8816C15.6823 28.4917 14.3025 29.3568 13.0906 30.4538C11.1154 32.2414 9.70573 34.53 8.99609 37.0524C5.08736 33.4225 2.63672 28.2424 2.63672 22.5C2.63672 11.5473 11.5473 2.63672 22.5 2.63672C33.4527 2.63672 42.3633 11.5473 42.3633 22.5C42.3633 28.2428 39.9126 33.4228 36.0039 37.0528Z" fill="#6D61DF"/>
</g>
<defs>
<clipPath id="clip0_87_2575">
<rect width="45" height="45" fill="white"/>
</clipPath>
</defs>
</svg>
