<svg width="30" height="30" viewBox="0 0 30 30" fill="none" xmlns="http://www.w3.org/2000/svg">
<path d="M15.6147 19.3652C15.478 19.502 15.3901 19.6484 15.3511 19.8047C15.312 19.9609 15.312 20.1221 15.3511 20.2881C15.3901 20.4541 15.478 20.5957 15.6147 20.7129C15.6929 20.791 15.7905 20.8545 15.9077 20.9033C16.0249 20.9521 16.1421 20.9766 16.2593 20.9766C16.5132 20.9766 16.7378 20.8887 16.9331 20.7129L22.4702 15.0293L16.9331 9.3457C16.7378 9.15039 16.5132 9.05273 16.2593 9.05273C16.0054 9.05273 15.7905 9.15039 15.6147 9.3457C15.5366 9.4043 15.478 9.46777 15.439 9.53613C15.3999 9.60449 15.3706 9.67773 15.3511 9.75586C15.3315 9.83398 15.3218 9.91211 15.3218 9.99023C15.3218 10.0684 15.3315 10.1465 15.3511 10.2246C15.3706 10.3027 15.3999 10.3809 15.439 10.459C15.478 10.5371 15.5366 10.6055 15.6147 10.6641L18.9839 14.0625H0.937012C0.683105 14.0625 0.463379 14.1504 0.277832 14.3262C0.0922851 14.502 -0.000488281 14.7217 -0.000488281 14.9854C-0.000488281 15.249 0.0922851 15.4736 0.277832 15.6592C0.463379 15.8447 0.683105 15.9375 0.937012 15.9375H19.0425L15.6147 19.3652ZM28.1245 0H11.2495C10.9175 0 10.605 0.0830078 10.312 0.249023C10.019 0.415039 9.78955 0.644531 9.62354 0.9375C9.45752 1.23047 9.37451 1.54297 9.37451 1.875V10.3125H11.2788V3.01758C11.2788 2.82227 11.3276 2.63672 11.4253 2.46094C11.5229 2.28516 11.6597 2.14355 11.8354 2.03613C12.0112 1.92871 12.1968 1.875 12.3921 1.875H26.9526C27.2651 1.875 27.5337 1.9873 27.7583 2.21191C27.9829 2.43652 28.0952 2.70508 28.0952 3.01758L28.1245 26.9824C28.1245 27.2949 28.0122 27.5635 27.7876 27.7881C27.563 28.0127 27.2944 28.125 26.9819 28.125H12.3921C12.0796 28.125 11.8159 28.0127 11.6011 27.7881C11.3862 27.5635 11.2788 27.2949 11.2788 26.9824V19.6582H9.37451V28.125C9.37451 28.6523 9.56006 29.0967 9.93115 29.458C10.3022 29.8193 10.7417 30 11.2495 30H28.1245C28.6519 30 29.0962 29.8193 29.4575 29.458C29.8188 29.0967 29.9995 28.6523 29.9995 28.125V1.875C29.9995 1.11328 29.6577 0.556641 28.9741 0.205078C28.7007 0.0683594 28.4175 0 28.1245 0Z" fill="#6D61DF"/>
</svg>
