<svg width="74" height="46" viewBox="0 0 74 46" fill="none" xmlns="http://www.w3.org/2000/svg">
<path d="M73.4008 43.2C73.4008 44.7 72.2008 45.9 70.7008 45.9H3.50078C2.00078 45.9 0.800781 44.7 0.800781 43.2V2.80001C0.800781 1.30001 2.00078 0.100006 3.50078 0.100006H70.7008C72.2008 0.100006 73.4008 1.30001 73.4008 2.80001V43.2Z" fill="#1A1F71"/>
<path d="M28.4004 13.4L20.3004 32.7H15.0004L11.0004 17.3C10.8004 16.4 10.5004 16 9.80039 15.6C8.60039 15 6.60039 14.3 4.90039 14L5.00039 13.4H13.5004C14.6004 13.4 15.6004 14.1 15.8004 15.4L17.9004 26.6L23.1004 13.5H28.4004V13.4ZM49.1004 26.4C49.1004 21.3 42.1004 21 42.1004 18.8C42.1004 18.1 42.8004 17.4 44.2004 17.2C44.9004 17.1 46.9004 17 49.1004 18.1L50.0004 14C48.8004 13.6 47.3004 13.1 45.3004 13.1C40.4004 13.1 36.9004 15.7 36.9004 19.5C36.9004 22.3 39.4004 23.8 41.3004 24.7C43.2004 25.6 43.9004 26.2 43.9004 27.1C43.9004 28.4 42.4004 29 40.9004 29C38.4004 29 36.9004 28.3 35.8004 27.8L34.9004 32C36.1004 32.5 38.2004 33 40.4004 33C45.6004 33 49.0004 30.4 49.1004 26.4ZM62.1004 32.7H66.7004L62.7004 13.4H58.4004C57.4004 13.4 56.6004 14 56.3004 14.8L48.8004 32.7H54.0004L55.0004 29.8H61.4004L62.1004 32.7ZM56.5004 25.9L59.1004 18.7L60.6004 25.9H56.5004ZM35.5004 13.4L31.4004 32.7H26.4004L30.5004 13.4H35.5004Z" fill="white"/>
</svg>
