<svg width="45" height="45" viewBox="0 0 45 45" fill="none" xmlns="http://www.w3.org/2000/svg">
<rect width="45" height="45" rx="5" fill="white" fill-opacity="0.1"/>
<path d="M31.0045 14.9062C29.1339 13.0312 26.6429 12 23.9955 12C18.5312 12 14.0848 16.4464 14.0848 21.9107C14.0848 23.6562 14.5402 25.3616 15.4062 26.8661L14 32L19.2545 30.6205C20.7009 31.4107 22.3304 31.8259 23.9911 31.8259H23.9955C29.4554 31.8259 34 27.3795 34 21.9152C34 19.2679 32.875 16.7812 31.0045 14.9062ZM23.9955 30.1563C22.5134 30.1563 21.0625 29.7589 19.7991 29.0089L19.5 28.8304L16.3839 29.6473L17.2143 26.6071L17.0179 26.2946C16.192 24.9821 15.7589 23.4688 15.7589 21.9107C15.7589 17.3705 19.4554 13.6741 24 13.6741C26.2009 13.6741 28.2679 14.5312 29.8214 16.0893C31.375 17.6473 32.3304 19.7143 32.3259 21.9152C32.3259 26.4598 28.5357 30.1563 23.9955 30.1563ZM28.5134 23.9866C28.2679 23.8616 27.0491 23.2634 26.8214 23.183C26.5938 23.0982 26.4286 23.058 26.2634 23.308C26.0982 23.558 25.625 24.1116 25.4777 24.2813C25.3348 24.4464 25.1875 24.4688 24.942 24.3438C23.4866 23.6161 22.5312 23.0446 21.5714 21.3973C21.317 20.9598 21.8259 20.9911 22.2991 20.0446C22.3795 19.8795 22.3393 19.7366 22.2768 19.6116C22.2143 19.4866 21.7188 18.2679 21.5134 17.7723C21.3125 17.2902 21.1071 17.3571 20.9554 17.3482C20.8125 17.3393 20.6473 17.3393 20.4821 17.3393C20.317 17.3393 20.0491 17.4018 19.8214 17.6473C19.5938 17.8973 18.9554 18.4955 18.9554 19.7143C18.9554 20.933 19.8438 22.1116 19.9643 22.2768C20.0893 22.442 21.7098 24.942 24.1964 26.0179C25.7679 26.6964 26.3839 26.7545 27.1696 26.6384C27.6473 26.567 28.6339 26.0402 28.8393 25.4598C29.0446 24.8795 29.0446 24.3839 28.9821 24.2813C28.9241 24.1696 28.7589 24.1071 28.5134 23.9866Z" fill="#E0E0E0"/>
</svg>
